<?xml version="1.0" encoding="UTF-8" standalone="no"?>
<svg
   xmlns:osb="http://www.openswatchbook.org/uri/2009/osb"
   xmlns:dc="http://purl.org/dc/elements/1.1/"
   xmlns:cc="http://creativecommons.org/ns#"
   xmlns:rdf="http://www.w3.org/1999/02/22-rdf-syntax-ns#"
   xmlns:svg="http://www.w3.org/2000/svg"
   xmlns="http://www.w3.org/2000/svg"
   xmlns:sodipodi="http://sodipodi.sourceforge.net/DTD/sodipodi-0.dtd"
   xmlns:inkscape="http://www.inkscape.org/namespaces/inkscape"
   version="1.1"
   id="Layer_1"
   x="0px"
   y="0px"
   width="1027.4825"
   height="1031.2152"
   viewBox="0 0 1027.4825 1031.2152"
   enable-background="new 0 0 3000 3000"
   xml:space="preserve"
   sodipodi:docname="qrcode.svg"
   inkscape:version="0.92.4 (f8dce91, 2019-08-02)"><metadata
   id="metadata3765"><rdf:RDF><cc:Work
       rdf:about=""><dc:format>image/svg+xml</dc:format><dc:type
         rdf:resource="http://purl.org/dc/dcmitype/StillImage" /><dc:title></dc:title></cc:Work></rdf:RDF></metadata><defs
   id="defs3763"><linearGradient
     id="linearGradient8364"
     osb:paint="solid"><stop
       style="stop-color:#000000;stop-opacity:1;"
       offset="0"
       id="stop8362" /></linearGradient></defs><sodipodi:namedview
   pagecolor="#ffffff"
   bordercolor="#666666"
   borderopacity="1"
   objecttolerance="10"
   gridtolerance="10"
   guidetolerance="10"
   inkscape:pageopacity="0"
   inkscape:pageshadow="2"
   inkscape:window-width="1853"
   inkscape:window-height="1025"
   id="namedview3761"
   showgrid="false"
   fit-margin-top="0"
   fit-margin-left="0"
   fit-margin-right="0"
   fit-margin-bottom="0"
   inkscape:zoom="0.55933333"
   inkscape:cx="544.77512"
   inkscape:cy="352.9583"
   inkscape:window-x="67"
   inkscape:window-y="27"
   inkscape:window-maximized="1"
   inkscape:current-layer="Layer_1" />  <path
   style="fill:#000000;fill-opacity:0.07853403;stroke:#7d7d7d;stroke-width:4.308;stroke-miterlimit:89.69999695;stroke-dasharray:none;stroke-opacity:1;stroke-linecap:butt;stroke-linejoin:miter;paint-order:fill markers stroke"
   d="m 14.664558,1017.7582 c -1.918247,-0.6116 -4.378455,-3.2012 -4.9943613,-5.2569 -0.37493,-1.2514 -0.4948102,-34.15272 -0.4948102,-135.79912 v -134.1477 l 1.1708185,-2.2412 c 0.947814,-1.8144 1.597688,-2.4642 3.412013,-3.4121 l 2.241195,-1.1707 H 150.23825 c 101.55471,0 134.58685,0.12 135.6682,0.4929 2.27266,0.7838 3.66929,2.0349 4.7962,4.2963 l 1.04841,2.1039 v 134.2042 c 0,101.5284 -0.12002,134.55242 -0.49296,135.63372 -0.7838,2.2727 -2.03486,3.6693 -4.29627,4.7962 l -2.10388,1.0484 -134.37216,-0.043 c -96.368126,-0.031 -134.781997,-0.1736 -135.821232,-0.505 z M 248.78032,977.36928 c 0.5343,-0.2965 1.33726,-1.094 1.78436,-1.7722 0.79772,-1.2102 0.81266,-3.0499 0.80076,-98.5788 -0.01,-78.3687 -0.11722,-97.535 -0.55121,-98.3171 -0.29649,-0.5343 -1.09399,-1.3373 -1.77222,-1.7844 -1.20996,-0.7976 -3.06202,-0.8129 -98.49454,-0.8156 -106.925423,0 -98.965759,-0.2019 -100.366266,2.5065 -0.56479,1.0921 -0.637553,12.3767 -0.635097,98.4948 0.0025,95.4326 0.01804,97.2846 0.815664,98.4946 0.447096,0.6782 1.250052,1.4757 1.784356,1.7722 0.782255,0.4341 19.930571,0.5391 98.317103,0.5391 78.38652,0 97.53483,-0.105 98.31709,-0.5391 z m -153.379855,-40.347 c -1.918247,-0.6116 -4.378455,-3.2012 -4.994361,-5.2569 -0.727779,-2.4291 -0.70892,-107.1281 0.01972,-109.5601 0.641665,-2.1417 3.113462,-4.5919 5.290245,-5.2441 1.228767,-0.3682 15.323921,-0.4948 55.063291,-0.4948 h 53.41176 l 2.24119,1.1708 c 1.81433,0.9478 2.4642,1.5976 3.41202,3.412 l 1.17081,2.2412 -0.009,53.6708 c -0.009,51.3438 -0.043,53.7437 -0.78797,55.3528 -0.95427,2.0611 -2.68777,3.7372 -4.76091,4.6032 -1.38748,0.5796 -7.58492,0.6482 -55.08543,0.6101 -37.61943,-0.03 -53.952629,-0.1802 -54.971146,-0.505 z m 241.974795,80.48662 c -2.06112,-0.9542 -3.73719,-2.6877 -4.60321,-4.7609 -0.58209,-1.3935 -0.65202,-9.5717 -0.64378,-75.26942 0.009,-70.8452 0.0395,-73.7713 0.78797,-75.388 0.42828,-0.9251 1.32294,-2.1924 1.98813,-2.8161 2.50348,-2.3476 3.16959,-2.4402 17.54736,-2.4402 h 13.21121 l 2.24122,-1.1708 c 1.81433,-0.9478 2.46417,-1.5977 3.41202,-3.412 l 1.17079,-2.2412 0.009,-13.3029 c 0.0101,-14.6735 0.10765,-15.2986 2.7761,-17.8009 2.76138,-2.5893 -0.7688,-2.441 57.85821,-2.4309 51.19906,0.01 53.59506,0.043 55.20406,0.788 0.9251,0.4283 2.19232,1.3229 2.81609,1.9881 2.34436,2.5001 2.44015,3.1832 2.44015,17.3986 0,14.2154 -0.0958,14.8986 -2.44015,17.3987 -2.50227,2.6684 -3.12734,2.7659 -17.80093,2.7761 l -13.30283,0.01 -2.24123,1.1708 c -1.81432,0.9479 -2.46416,1.5977 -3.41201,3.412 l -1.1708,2.2412 v 13.36 13.3599 l 1.1708,2.2413 c 0.94785,1.8143 1.59769,2.4641 3.41201,3.412 l 2.24123,1.1708 13.30283,0.01 c 14.67359,0.01 15.29866,0.1077 17.80093,2.7761 2.34436,2.5001 2.44015,3.1832 2.44015,17.3986 0,14.2155 -0.0958,14.8986 -2.44015,17.3987 -2.50227,2.6684 -3.12734,2.7659 -17.80093,2.7761 l -13.30283,0.01 -2.24123,1.1708 c -1.81432,0.9479 -2.46416,1.5977 -3.41201,3.412 l -1.1708,2.2413 -0.009,33.4868 c -0.009,31.69752 -0.0508,33.57662 -0.78797,35.16882 -0.42828,0.9251 -1.32294,2.1923 -1.98813,2.8161 -2.50424,2.3482 -3.17153,2.4409 -17.49025,2.4309 -14.50875,-0.01 -15.15363,-0.1116 -17.65219,-2.7761 -2.58898,-2.761 -2.44016,0.7707 -2.44016,-57.91532 v -53.5792 l -1.1708,-2.2412 c -0.94785,-1.8143 -1.59769,-2.4642 -3.41202,-3.412 l -2.24122,-1.1708 h -13.35994 -13.35994 l -2.24122,1.1708 c -1.81433,0.9478 -2.46417,1.5977 -3.41202,3.412 l -1.1708,2.2412 -0.009,53.6708 c -0.009,51.34382 -0.043,53.74372 -0.78797,55.35282 -0.42828,0.9251 -1.32294,2.1923 -1.98812,2.8161 -2.50425,2.3482 -3.17154,2.4409 -17.49026,2.4309 -11.90586,-0.01 -13.31373,-0.083 -14.83611,-0.788 z m 161.47182,0 c -0.9251,-0.4283 -2.19232,-1.3229 -2.81609,-1.9881 -2.34823,-2.5043 -2.44095,-3.1716 -2.4309,-17.49032 0.0101,-14.5087 0.1116,-15.1536 2.77609,-17.6522 2.50349,-2.3475 3.1696,-2.4401 17.54736,-2.4401 h 13.21121 l 2.24122,-1.1708 c 1.81433,-0.9479 2.46417,-1.5977 3.41202,-3.412 l 1.1708,-2.2413 v -33.3951 c 0,-36.5041 -0.0955,-35.0273 2.44016,-37.7314 2.50268,-2.6689 3.13099,-2.7669 17.74382,-2.7669 14.61282,0 15.24113,0.098 17.74381,2.7669 2.58873,2.7607 2.44016,-0.7559 2.44016,57.7666 0,47.35342 -0.0743,53.60832 -0.65303,54.99382 -0.86602,2.0732 -2.54209,3.8067 -4.60321,4.7609 -1.5926,0.7373 -3.45869,0.7788 -35.11171,0.7788 -31.65302,0 -33.51911,-0.042 -35.11171,-0.7788 z m 121.10386,0 c -2.06112,-0.9542 -3.73719,-2.6877 -4.60321,-4.7609 -0.57877,-1.3856 -0.65303,-7.6546 -0.65303,-55.14252 v -53.5792 l -1.1708,-2.2412 c -0.94785,-1.8143 -1.59769,-2.4642 -3.41202,-3.412 l -2.24122,-1.1708 -13.30284,-0.01 c -14.67358,-0.01 -15.29865,-0.1076 -17.80092,-2.7761 -2.34752,-2.5035 -2.44016,-3.1696 -2.44016,-17.5473 v -13.2113 l -1.17079,-2.2412 c -0.94785,-1.8143 -1.59769,-2.4641 -3.41202,-3.412 l -2.24122,-1.1708 -13.30284,-0.01 c -14.67358,-0.01 -15.29866,-0.1077 -17.80092,-2.7761 -2.34437,-2.5001 -2.44016,-3.1833 -2.44016,-17.3987 0,-14.2154 0.0958,-14.8985 2.44016,-17.3986 0.62377,-0.6652 1.89098,-1.5598 2.81608,-1.9881 1.59214,-0.7372 3.47127,-0.7792 35.16882,-0.788 l 33.48681,-0.01 2.24122,-1.1708 c 1.81433,-0.9479 2.46417,-1.5977 3.41202,-3.4121 l 1.1708,-2.2412 v -13.2112 c 0,-14.3777 0.0926,-15.0439 2.44016,-17.5473 2.50226,-2.6685 3.12733,-2.766 17.80092,-2.7761 l 13.30284,-0.01 2.24122,-1.1708 c 1.81433,-0.9478 2.46417,-1.5977 3.41201,-3.412 l 1.1708,-2.2412 v -13.36 -13.3599 l -1.1708,-2.2412 c -0.94784,-1.8144 -1.59768,-2.4642 -3.41201,-3.4121 l -2.24122,-1.1707 h -13.35995 -13.35994 l -2.24122,1.1707 c -1.81433,0.9479 -2.46417,1.5977 -3.41202,3.4121 l -1.17079,2.2412 v 13.2112 c 0,14.3778 -0.0926,15.0439 -2.44016,17.5474 -2.50269,2.6689 -3.131,2.7668 -17.74382,2.7668 -14.61282,0 -15.24113,-0.098 -17.74382,-2.7668 -2.34752,-2.5035 -2.44016,-3.1696 -2.44016,-17.5474 v -13.2112 l -1.17079,-2.2412 c -0.94785,-1.8144 -1.59769,-2.4642 -3.41202,-3.4121 l -2.24122,-1.1707 h -13.35994 -13.35995 l -2.24122,1.1707 c -1.81433,0.9479 -2.46417,1.5977 -3.41201,3.4121 l -1.1708,2.2412 v 33.3952 c 0,36.504 0.0955,35.0272 -2.44016,37.7313 -2.49857,2.6645 -3.14344,2.7659 -17.65219,2.7761 -14.31872,0.01 -14.98602,-0.083 -17.49026,-2.4309 -2.66845,-2.5023 -2.76592,-3.1273 -2.77609,-17.8009 l -0.009,-13.3029 -1.17079,-2.2412 c -0.94785,-1.8143 -1.59769,-2.4642 -3.41202,-3.412 l -2.24122,-1.1708 -33.48682,-0.01 c -31.69754,-0.01 -33.57667,-0.051 -35.16881,-0.788 -2.06112,-0.9543 -3.73719,-2.6878 -4.60321,-4.7609 -0.96647,-2.3137 -0.96647,-26.938 0,-29.2517 0.86602,-2.0732 2.54209,-3.8067 4.60321,-4.7609 1.59214,-0.7372 3.47127,-0.7793 35.16881,-0.788 l 33.48682,-0.01 2.24122,-1.1708 c 1.81433,-0.9479 2.46417,-1.5977 3.41202,-3.4121 l 1.17079,-2.2412 v -13.2112 c 0,-14.3778 0.0926,-15.0439 2.44016,-17.5474 2.50227,-2.6684 3.12734,-2.7659 17.80093,-2.7761 l 13.30283,-0.01 2.24122,-1.1708 c 1.81433,-0.9478 2.46417,-1.5977 3.41202,-3.412 l 1.1708,-2.2412 v -13.36 -13.3599 l -1.1708,-2.2412 c -0.94785,-1.8144 -1.59769,-2.4642 -3.41202,-3.4121 l -2.24122,-1.1708 H 513.9238 c -14.37776,0 -15.04387,-0.093 -17.54736,-2.4401 -0.66519,-0.6238 -1.55984,-1.891 -1.98812,-2.8161 -0.73705,-1.592 -0.77927,-3.4674 -0.78797,-35.0201 -0.0101,-36.4451 -0.10534,-34.9695 2.4309,-37.6743 2.50269,-2.6689 3.131,-2.7668 17.74382,-2.7668 14.61282,0 15.24113,0.098 17.74382,2.7668 2.34752,2.5035 2.44016,3.1696 2.44016,17.5474 v 13.2112 l 1.1708,2.2412 c 0.94784,1.8144 1.59768,2.4642 3.41201,3.412 l 2.24122,1.1708 13.30284,0.01 c 14.67359,0.01 15.29866,0.1076 17.80092,2.7761 2.53566,2.7041 2.44016,1.2273 2.44016,37.7314 v 33.3952 l 1.1708,2.2412 c 0.94785,1.8143 1.59769,2.4642 3.41202,3.412 l 2.24122,1.1708 h 33.54392 33.54392 l 2.24122,-1.1708 c 1.81433,-0.9478 2.46417,-1.5977 3.41201,-3.412 l 1.1708,-2.2412 v -13.2113 c 0,-14.3777 0.0926,-15.0438 2.44016,-17.5473 2.50227,-2.6685 3.12734,-2.7659 17.80092,-2.7761 l 13.30284,-0.01 2.24122,-1.1708 c 1.81433,-0.9478 2.46417,-1.5976 3.41202,-3.412 l 1.1708,-2.2412 v -13.36 -13.3599 l -1.1708,-2.2412 c -0.94785,-1.8144 -1.59769,-2.4642 -3.41202,-3.4121 l -2.24122,-1.1708 -53.67079,-0.01 c -51.34383,-0.01 -53.74371,-0.043 -55.35279,-0.788 -0.9251,-0.4283 -2.19232,-1.3229 -2.81609,-1.9881 -2.53565,-2.7041 -2.44016,-1.2273 -2.44016,-37.7313 v -33.3952 l -1.17079,-2.2412 c -0.94785,-1.8144 -1.59769,-2.4642 -3.41202,-3.4121 l -2.24122,-1.1708 -13.30284,-0.01 c -14.67358,-0.01 -15.29866,-0.1077 -17.80092,-2.7761 -2.34437,-2.5001 -2.44016,-3.1832 -2.44016,-17.3986 0,-14.2154 0.0958,-14.8986 2.44016,-17.3987 0.62377,-0.6652 1.89098,-1.5598 2.81608,-1.9881 1.59214,-0.7371 3.47127,-0.7792 35.16882,-0.788 l 33.48681,-0.01 2.24122,-1.1708 c 1.81433,-0.9479 2.46417,-1.5977 3.41202,-3.412 l 1.1708,-2.2413 v -13.2112 c 0,-14.3777 0.0926,-15.0438 2.44016,-17.5473 2.50268,-2.6689 3.13099,-2.7669 17.74381,-2.7669 14.61282,0 15.24114,0.098 17.74382,2.7669 2.53566,2.7041 2.44016,1.2272 2.44016,37.7313 v 33.3952 l 1.1708,2.2412 c 0.94785,1.8144 1.59769,2.4642 3.41202,3.412 l 2.24122,1.1708 13.30283,0.01 c 14.67359,0.01 15.29866,0.1076 17.80093,2.7761 2.34752,2.5035 2.44016,3.1696 2.44016,17.5473 v 13.2113 l 1.17079,2.2412 c 0.94785,1.8143 1.59769,2.4641 3.41202,3.412 l 2.24122,1.1708 13.30284,0.01 c 14.67358,0.01 15.29865,0.1077 17.80092,2.7761 2.53565,2.7041 2.44016,1.2273 2.44016,37.7314 v 33.3952 l 1.1708,2.2412 c 0.94784,1.8144 1.59768,2.4642 3.41201,3.412 l 2.24122,1.1708 53.6708,0.01 c 51.34383,0.01 53.7437,0.043 55.35279,0.788 0.9251,0.4282 2.19231,1.3229 2.81608,1.9881 2.34753,2.5035 2.44016,3.1696 2.44016,17.5473 v 13.2113 l 1.1708,2.2412 c 0.94785,1.8143 1.59769,2.4642 3.41202,3.412 l 2.24122,1.1708 33.48681,0.01 c 31.69755,0.01 33.57668,0.051 35.16882,0.788 0.92509,0.4283 2.19231,1.323 2.81608,1.9881 2.34752,2.5035 2.44016,3.1696 2.44016,17.5474 v 13.2112 l 1.1708,2.2412 c 0.94784,1.8144 1.59768,2.4642 3.41201,3.4121 l 2.24122,1.1708 h 33.39519 c 36.50409,0 35.02719,-0.096 37.73129,2.4401 0.6652,0.6238 1.5599,1.891 1.9882,2.8161 0.7486,1.617 0.7787,4.5345 0.7787,75.4797 0,70.9451 -0.03,73.8626 -0.7787,75.4796 -0.4283,0.9251 -1.323,2.1923 -1.9882,2.8161 -2.5034,2.3475 -3.1696,2.4402 -17.54731,2.4402 h -13.21121 l -2.24122,1.1708 c -1.81433,0.9478 -2.46417,1.5977 -3.41202,3.412 l -1.1708,2.2412 v 13.3599 13.36 l 1.1708,2.2412 c 0.94785,1.8143 1.59769,2.4642 3.41202,3.412 l 2.24122,1.1708 h 13.21121 c 14.37771,0 15.04391,0.093 17.54731,2.4402 0.6652,0.6237 1.5599,1.891 1.9882,2.8161 0.7373,1.5926 0.7787,3.4587 0.7787,35.1117 0,31.65302 -0.042,33.51912 -0.7787,35.11172 -0.9543,2.0611 -2.6878,3.7372 -4.7609,4.6032 -1.386,0.5789 -7.6353,0.652 -55.08546,0.6438 -51.19905,-0.01 -53.59506,-0.043 -55.20406,-0.788 -0.9251,-0.4283 -2.19232,-1.3229 -2.81609,-1.9881 -2.53565,-2.7041 -2.44015,-1.2273 -2.44015,-37.73142 v -33.3951 l -1.1708,-2.2413 c -0.94785,-1.8143 -1.59769,-2.4641 -3.41202,-3.412 l -2.24122,-1.1708 h -13.21121 c -14.37776,0 -15.04388,-0.093 -17.54736,-2.4401 -2.6645,-2.4986 -2.76592,-3.1435 -2.7761,-17.6522 -0.0101,-14.3188 0.0827,-14.986 2.43091,-17.4903 0.62377,-0.6652 1.89099,-1.5598 2.81609,-1.9881 1.59213,-0.7371 3.47126,-0.7792 35.16881,-0.788 l 33.48682,-0.01 2.24122,-1.1708 c 1.81432,-0.9479 2.46416,-1.5977 3.41201,-3.412 l 1.1708,-2.2413 0.009,-13.3028 c 0.0101,-14.6736 0.10765,-15.2987 2.7761,-17.8009 2.50348,-2.3476 3.1696,-2.4402 17.54736,-2.4402 h 13.21121 l 2.24122,-1.1708 c 1.81433,-0.9478 2.46417,-1.5977 3.41202,-3.412 l 1.17079,-2.2412 v -13.36 -13.3599 l -1.17079,-2.2412 c -0.94785,-1.8144 -1.59769,-2.4642 -3.41202,-3.412 l -2.24122,-1.1708 h -13.21121 c -14.37776,0 -15.04388,-0.093 -17.54736,-2.4402 -2.66845,-2.5023 -2.76592,-3.1273 -2.7761,-17.8009 l -0.009,-13.3029 -1.1708,-2.2412 c -0.94785,-1.8143 -1.59769,-2.4642 -3.41201,-3.412 l -2.24122,-1.1708 -13.30284,-0.01 c -14.67359,-0.01 -15.29866,-0.1077 -17.80093,-2.7761 -2.34752,-2.5035 -2.44015,-3.1696 -2.44015,-17.5474 v -13.2112 l -1.1708,-2.2412 c -0.94785,-1.8144 -1.59769,-2.4642 -3.41202,-3.4121 l -2.24122,-1.1707 h -13.35994 -13.35994 l -2.24122,1.1707 c -1.81433,0.9479 -2.46417,1.5977 -3.41202,3.4121 l -1.1708,2.2412 v 73.7631 c 0,80.8804 0.174,75.3115 -2.44016,78.0993 -2.50268,2.6689 -3.13099,2.7669 -17.74382,2.7669 -14.61282,0 -15.24113,-0.098 -17.74381,-2.7669 -2.34753,-2.5035 -2.44016,-3.1696 -2.44016,-17.5473 v -13.2113 l -1.1708,-2.2412 c -0.94785,-1.8143 -1.59769,-2.4641 -3.41202,-3.412 l -2.24122,-1.1708 h -13.3602 -13.35994 l -2.24122,1.1708 c -1.81433,0.9479 -2.46417,1.5977 -3.41202,3.412 l -1.1708,2.2412 v 33.3952 c 0,36.5041 0.0955,35.0273 -2.44016,37.7314 -2.50226,2.6684 -3.12733,2.7659 -17.80092,2.7761 l -13.30284,0.01 -2.24122,1.1708 c -1.81433,0.9479 -2.46417,1.5977 -3.41201,3.412 l -1.1708,2.2413 -0.009,13.3028 c -0.0101,14.6736 -0.10765,15.2986 -2.7761,17.8009 -2.50424,2.3483 -3.17153,2.441 -17.49025,2.4309 -14.50875,-0.01 -15.15363,-0.1116 -17.6522,-2.7761 -2.53506,-2.7034 -2.44015,-1.2419 -2.44015,-37.5826 0,-36.3407 -0.0949,-34.8791 2.44015,-37.5826 2.50227,-2.6684 3.12734,-2.7659 17.80093,-2.7761 l 13.30283,-0.01 2.24123,-1.1708 c 1.81432,-0.9479 2.46416,-1.5977 3.41201,-3.412 l 1.1708,-2.2413 v -13.3599 -13.36 l -1.1708,-2.2412 c -0.94785,-1.8143 -1.59769,-2.4641 -3.41201,-3.412 l -2.24123,-1.1708 h -13.35994 -13.35994 l -2.24122,1.1708 c -1.81433,0.9479 -2.46417,1.5977 -3.41202,3.412 l -1.17079,2.2412 v 13.2113 c 0,14.3777 -0.0926,15.0438 -2.44016,17.5473 -2.50227,2.6685 -3.12734,2.7659 -17.80093,2.7761 l -13.30283,0.01 -2.24122,1.1708 c -1.81433,0.9478 -2.46417,1.5977 -3.41202,3.412 l -1.1708,2.2412 -0.009,53.6708 c -0.009,51.34382 -0.043,53.74372 -0.78797,55.35282 -0.42828,0.9251 -1.32294,2.1923 -1.98813,2.8161 -2.50424,2.3482 -3.17153,2.4409 -17.49025,2.4309 -11.90586,-0.01 -13.31373,-0.083 -14.83611,-0.788 z M 811.95165,815.29558 c 1.81433,-0.9479 2.46417,-1.5977 3.41202,-3.4121 l 1.1708,-2.2412 v -53.7279 -53.7279 l -1.1708,-2.2412 c -0.94785,-1.8143 -1.59769,-2.4642 -3.41202,-3.412 l -2.24122,-1.1708 h -53.72789 -53.7279 l -2.24122,1.1708 c -1.81433,0.9478 -2.46417,1.5977 -3.41202,3.412 l -1.17079,2.2412 v 53.7279 53.7279 l 1.17079,2.2412 c 0.94785,1.8144 1.59769,2.4642 3.41202,3.4121 l 2.24122,1.1708 h 53.7279 53.72789 z m -70.89685,-39.9944 c -0.9251,-0.4283 -2.19231,-1.323 -2.81608,-1.9881 -2.34824,-2.5043 -2.44096,-3.1716 -2.43091,-17.4903 0.0101,-14.5087 0.1116,-15.1536 2.7761,-17.6522 2.50008,-2.3444 3.18322,-2.4401 17.39863,-2.4401 14.2154,0 14.89855,0.096 17.39863,2.4401 2.66891,2.5027 2.76688,3.131 2.76688,17.7438 0,14.6128 -0.098,15.2412 -2.76688,17.7438 -2.50425,2.3483 -3.17154,2.441 -17.49026,2.431 -11.90586,-0.01 -13.31373,-0.083 -14.83611,-0.788 z m 80.73591,201.8397 c -0.9251,-0.4282 -2.19231,-1.3229 -2.81608,-1.9881 -2.34824,-2.5042 -2.44096,-3.1715 -2.43091,-17.4902 0.0101,-14.5088 0.1116,-15.1537 2.77609,-17.6522 2.50008,-2.3444 3.18323,-2.4402 17.39863,-2.4402 14.21541,0 14.89855,0.096 17.39863,2.4402 2.66892,2.5027 2.76689,3.131 2.76689,17.7438 0,14.6128 -0.098,15.2411 -2.76689,17.7438 -2.50424,2.3483 -3.17153,2.441 -17.49025,2.4309 -11.90586,-0.01 -13.31373,-0.083 -14.83611,-0.788 z m -322.94363,-80.7359 c -0.9251,-0.4282 -2.19232,-1.3229 -2.81609,-1.9881 -2.34823,-2.5042 -2.44095,-3.1715 -2.4309,-17.4902 0.0101,-14.5088 0.1116,-15.1537 2.77609,-17.6522 2.50008,-2.3444 3.18322,-2.4402 17.39863,-2.4402 14.21541,0 14.89855,0.096 17.39863,2.4402 2.66891,2.5027 2.76689,3.131 2.76689,17.7438 0,14.6128 -0.098,15.2411 -2.76689,17.7438 -2.50424,2.3482 -3.17153,2.441 -17.49026,2.4309 -11.90585,-0.01 -13.31372,-0.083 -14.8361,-0.788 z m 403.67954,-40.3679 c -0.9251,-0.4283 -2.19232,-1.3229 -2.81609,-1.9881 -2.34823,-2.5043 -2.44095,-3.1716 -2.4309,-17.4903 0.0101,-14.5087 0.1116,-15.1536 2.77609,-17.6522 2.50008,-2.3444 3.18323,-2.4401 17.39863,-2.4401 14.21541,0 14.89855,0.096 17.39863,2.4401 2.66891,2.5027 2.76689,3.131 2.76689,17.7438 0,14.6129 -0.098,15.2412 -2.76689,17.7439 -2.50424,2.3482 -3.17153,2.4409 -17.49025,2.4309 -11.90586,-0.01 -13.31373,-0.083 -14.83611,-0.788 z M 337.37526,734.93318 c -0.9251,-0.4283 -2.19231,-1.3229 -2.81608,-1.9881 -2.34753,-2.5035 -2.44016,-3.1696 -2.44016,-17.5474 v -13.2112 l -1.1708,-2.2412 c -0.94785,-1.8143 -1.59769,-2.4642 -3.41202,-3.412 l -2.24122,-1.1708 -33.48681,-0.01 c -31.69754,-0.01 -33.57669,-0.051 -35.16882,-0.7879 -0.92509,-0.4283 -2.19232,-1.323 -2.81606,-1.9882 -2.34437,-2.5 -2.44018,-3.1832 -2.44018,-17.3986 0,-14.2154 0.0958,-14.8985 2.44018,-17.3986 2.50223,-2.6685 3.12731,-2.7659 17.80091,-2.7761 l 13.30284,-0.01 2.24119,-1.1708 c 1.81433,-0.9478 2.4642,-1.5976 3.41202,-3.412 l 1.17081,-2.2412 v -13.2112 c 0,-14.3778 0.0926,-15.0439 2.44018,-17.5474 2.50267,-2.6689 3.13097,-2.7669 17.7438,-2.7669 14.61282,0 15.24113,0.098 17.74382,2.7669 2.34752,2.5035 2.44016,3.1696 2.44016,17.5474 v 13.2112 l 1.1708,2.2412 c 0.94784,1.8144 1.59768,2.4642 3.41201,3.412 l 2.24122,1.1708 h 13.21121 c 14.37777,0 15.04388,0.093 17.54737,2.4402 0.66518,0.6238 1.55984,1.891 1.98812,2.8161 0.73734,1.5926 0.77876,3.4587 0.77876,35.1117 0,31.653 -0.0416,33.5191 -0.77876,35.1117 -0.42828,0.9251 -1.32294,2.1923 -1.98812,2.8161 -2.50425,2.3482 -3.17154,2.4409 -17.49026,2.4309 -11.90586,-0.01 -13.31373,-0.083 -14.83611,-0.788 z M 95.167538,694.56528 c -0.925099,-0.4283 -2.192329,-1.323 -2.816064,-1.9882 -2.348255,-2.5042 -2.440996,-3.1715 -2.430946,-17.4902 0.01018,-14.5088 0.111605,-15.1536 2.776113,-17.6522 2.500097,-2.3444 3.183232,-2.4402 17.398629,-2.4402 14.2154,0 14.89853,0.096 17.39863,2.4402 2.6689,2.5027 2.76688,3.131 2.76688,17.7438 0,14.6128 -0.098,15.2412 -2.76688,17.7438 -2.50424,2.3483 -3.17152,2.441 -17.49025,2.4309 -11.905874,-0.01 -13.313723,-0.083 -14.836112,-0.7879 z m 80.735912,0 c -0.9251,-0.4283 -2.19233,-1.323 -2.81607,-1.9882 -2.34755,-2.5034 -2.44018,-3.1695 -2.44018,-17.5473 v -13.2112 l -1.17082,-2.2412 c -0.94781,-1.8144 -1.59768,-2.4642 -3.41201,-3.4121 l -2.24119,-1.1708 -13.30285,-0.01 c -14.67359,-0.01 -15.29867,-0.1077 -17.8009,-2.7761 -2.34826,-2.5042 -2.441,-3.1716 -2.43095,-17.4903 0.0102,-14.5088 0.11161,-15.1536 2.77611,-17.6522 2.50349,-2.3475 3.16962,-2.4402 17.54736,-2.4402 h 13.21123 l 2.24119,-1.1708 c 1.81433,-0.9478 2.4642,-1.5976 3.41201,-3.412 l 1.17082,-2.2412 v -13.2112 c 0,-14.3778 0.0926,-15.0439 2.44018,-17.5474 2.50223,-2.6684 3.12732,-2.7659 17.80091,-2.7761 l 13.30284,-0.01 2.2412,-1.1708 c 1.81432,-0.9479 2.46419,-1.5977 3.41201,-3.412 l 1.17082,-2.2412 v -33.544 -33.5439 l -1.17082,-2.2412 c -0.94782,-1.8143 -1.59769,-2.4642 -3.41201,-3.412 l -2.2412,-1.1708 h -13.21122 c -14.37775,0 -15.04388,-0.093 -17.54736,-2.4402 -2.66844,-2.5022 -2.76592,-3.1273 -2.77611,-17.8009 l -0.009,-13.3028 -1.17082,-2.2413 c -0.94782,-1.8143 -1.59769,-2.4641 -3.41202,-3.412 l -2.24119,-1.1708 -33.48682,-0.01 c -31.697545,-0.01 -33.576694,-0.051 -35.168819,-0.788 -0.925099,-0.4283 -2.192329,-1.3229 -2.816064,-1.9881 -2.344352,-2.5001 -2.440163,-3.1832 -2.440163,-17.3986 0,-14.2154 0.09581,-14.8986 2.44018,-17.3987 2.502228,-2.6684 3.127314,-2.7659 17.800906,-2.7761 l 13.30284,-0.01 2.2412,-1.1708 c 1.81432,-0.9479 2.4642,-1.5977 3.41201,-3.412 l 1.17082,-2.2413 v -13.3599 -13.3599 l -1.17082,-2.2412 c -0.94781,-1.8143 -1.59769,-2.4642 -3.41201,-3.412 l -2.2412,-1.1708 -53.670795,-0.01 c -51.343827,-0.01 -53.743723,-0.043 -55.352794,-0.788 -2.061112,-0.9542 -3.73719,-2.6877 -4.6031877,-4.7608 -0.9665055,-2.3138 -0.9665055,-26.938 0,-29.2518 0.8659977,-2.0731 2.5420757,-3.8066 4.6031877,-4.7609 1.616984,-0.7486 4.534503,-0.7787 75.479663,-0.7787 70.945166,0 73.862676,0.03 75.479666,0.7787 0.9251,0.4283 2.19233,1.323 2.81606,1.9882 2.53569,2.7041 2.44018,1.2272 2.44018,37.7313 v 33.3951 l 1.17082,2.2413 c 0.94781,1.8143 1.59769,2.4641 3.41201,3.412 l 2.2412,1.1708 h 13.21122 c 14.37775,0 15.04388,0.093 17.54736,2.4401 2.66844,2.5023 2.76592,3.1274 2.77611,17.801 l 0.009,13.3028 1.17082,2.2412 c 0.94782,1.8143 1.59769,2.4642 3.41201,3.412 l 2.2412,1.1708 13.30284,0.01 c 14.67359,0.01 15.29868,0.1076 17.80091,2.7761 2.34755,2.5035 2.44018,3.1696 2.44018,17.5473 v 13.2112 l 1.17081,2.2413 c 0.94782,1.8143 1.59769,2.4641 3.41202,3.412 l 2.24119,1.1708 h 13.35995 13.35996 l 2.24119,-1.1708 c 1.81433,-0.9479 2.4642,-1.5977 3.41201,-3.412 l 1.1708,-2.2413 v -13.3599 -13.3599 l -1.17081,-2.2413 c -0.94782,-1.8143 -1.59769,-2.4641 -3.41202,-3.412 l -2.24119,-1.1708 -13.30284,-0.01 c -14.6736,-0.01 -15.29868,-0.1077 -17.80091,-2.7761 -2.34437,-2.5001 -2.44018,-3.1832 -2.44018,-17.3986 0,-14.2154 0.0958,-14.8986 2.44018,-17.3987 0.62374,-0.6652 1.89097,-1.5598 2.81606,-1.9881 1.59261,-0.7373 3.45871,-0.7788 35.11171,-0.7788 31.65302,0 33.51911,0.042 35.11171,0.7788 0.9251,0.4283 2.19232,1.3229 2.81609,1.9881 2.34752,2.5035 2.44016,3.1696 2.44016,17.5474 v 13.2112 l 1.1708,2.2412 c 0.94784,1.8143 1.59768,2.4642 3.41201,3.412 l 2.24122,1.1708 13.30284,0.01 c 14.67358,0.01 15.29866,0.1076 17.80092,2.7761 2.34824,2.5042 2.44096,3.1715 2.43091,17.4902 -0.0101,14.5088 -0.1116,15.1537 -2.77609,17.6522 -2.50349,2.3475 -3.1696,2.4402 -17.54737,2.4402 h -13.21121 l -2.24122,1.1708 c -1.81433,0.9478 -2.46417,1.5977 -3.41201,3.412 l -1.1708,2.2412 v 13.36 13.3599 l 1.1708,2.2412 c 0.94784,1.8144 1.59768,2.4642 3.41201,3.412 l 2.24122,1.1708 h 13.35995 13.35994 l 2.24122,-1.1708 c 1.81433,-0.9478 2.46417,-1.5976 3.41202,-3.412 l 1.17079,-2.2412 0.009,-13.3028 c 0.0101,-14.6736 0.10765,-15.2987 2.7761,-17.801 2.50008,-2.3443 3.18322,-2.4401 17.39863,-2.4401 14.21541,0 14.89855,0.096 17.39863,2.4401 2.66845,2.5023 2.76592,3.1274 2.7761,17.801 l 0.009,13.3028 1.17079,2.2412 c 0.94785,1.8144 1.59769,2.4642 3.41202,3.412 l 2.24122,1.1708 h 13.35994 13.35995 l 2.24122,-1.1708 c 1.81433,-0.9478 2.46417,-1.5976 3.41201,-3.412 l 1.1708,-2.2412 0.009,-33.4868 c 0.009,-31.6976 0.0508,-33.5767 0.78798,-35.1688 0.42827,-0.9251 1.32293,-2.1923 1.98812,-2.8161 2.70347,-2.5351 1.2419,-2.4402 37.5826,-2.4402 36.34071,0 34.87914,-0.095 37.58261,2.4402 2.66891,2.5027 2.76689,3.131 2.76689,17.7438 0,14.6128 -0.098,15.2411 -2.76689,17.7438 -2.50348,2.3475 -3.1696,2.4402 -17.54736,2.4402 h -13.21121 l -2.24122,1.1708 c -1.81433,0.9478 -2.46417,1.5977 -3.41202,3.412 l -1.1708,2.2412 -0.009,33.4868 c -0.009,31.6976 -0.0508,33.5767 -0.78797,35.1688 -0.42828,0.9251 -1.32293,2.1924 -1.98812,2.8161 -2.70411,2.5357 -1.22727,2.4402 -37.73134,2.4402 h -33.39519 l -2.24122,1.1708 c -1.81433,0.9478 -2.46417,1.5977 -3.41202,3.412 l -1.17079,2.2412 -0.009,13.3029 c -0.0101,14.6735 -0.10765,15.2986 -2.7761,17.8009 -2.50008,2.3444 -3.18322,2.4401 -17.39863,2.4401 -14.21541,0 -14.89855,-0.096 -17.39863,-2.4401 -2.66845,-2.5023 -2.76592,-3.1274 -2.7761,-17.8009 l -0.009,-13.3029 -1.17079,-2.2412 c -0.94785,-1.8143 -1.59769,-2.4642 -3.41202,-3.412 l -2.24122,-1.1708 -33.48682,-0.01 c -31.69754,-0.01 -33.57669,-0.051 -35.16881,-0.7879 -0.9251,-0.4283 -2.19233,-1.323 -2.81607,-1.9882 -2.34754,-2.5034 -2.44018,-3.1696 -2.44018,-17.5473 v -13.2112 l -1.17081,-2.2412 c -0.94782,-1.8144 -1.59769,-2.4642 -3.41202,-3.4121 l -2.24119,-1.1708 h -13.35995 -13.35995 l -2.2412,1.1708 c -1.81432,0.9479 -2.4642,1.5977 -3.41201,3.4121 l -1.17082,2.2412 v 13.3599 13.36 l 1.17082,2.2412 c 0.94781,1.8143 1.59769,2.4641 3.41201,3.412 l 2.2412,1.1708 13.30284,0.01 c 14.67359,0.01 15.29868,0.1077 17.8009,2.7761 2.34826,2.5043 2.441,3.1716 2.43095,17.4903 -0.0102,14.5087 -0.1116,15.1536 -2.77611,17.6522 -2.50348,2.3475 -3.16961,2.4401 -17.54736,2.4401 h -13.21122 l -2.2412,1.1708 c -1.81432,0.9479 -2.4642,1.5977 -3.41201,3.4121 l -1.17082,2.2412 -0.009,13.3028 c -0.0102,14.6736 -0.10767,15.2987 -2.77611,17.801 -2.50349,2.3475 -3.16962,2.4401 -17.54736,2.4401 h -13.21122 l -2.2412,1.1708 c -1.81432,0.9479 -2.4642,1.5977 -3.41201,3.4121 l -1.17082,2.2412 -0.009,13.3028 c -0.0102,14.6736 -0.10767,15.2987 -2.77611,17.8009 -2.50424,2.3483 -3.17152,2.441 -17.49025,2.4309 -11.90588,-0.01 -13.31373,-0.083 -14.83612,-0.7879 z m 282.57567,0 c -0.92509,-0.4283 -2.19231,-1.323 -2.81608,-1.9882 -2.34824,-2.5042 -2.44096,-3.1715 -2.43091,-17.4902 0.0101,-14.5088 0.1116,-15.1536 2.7761,-17.6522 2.50008,-2.3444 3.18322,-2.4402 17.39863,-2.4402 14.2154,0 14.89855,0.096 17.39863,2.4402 2.66891,2.5027 2.76688,3.131 2.76688,17.7438 0,14.6128 -0.098,15.2412 -2.76688,17.7438 -2.50424,2.3483 -3.17154,2.441 -17.49026,2.4309 -11.90585,-0.01 -13.31373,-0.083 -14.83611,-0.7879 z m 484.41545,0 c -2.06112,-0.9543 -3.73719,-2.6878 -4.6032,-4.7609 -0.58387,-1.3978 -0.65207,-11.508 -0.64379,-95.4535 0.009,-90.4913 0.0374,-93.9509 0.78797,-95.572 0.42828,-0.9251 1.32294,-2.1923 1.98813,-2.8161 2.50348,-2.3475 3.1696,-2.4401 17.54736,-2.4401 h 13.21121 l 2.24122,-1.1708 c 1.81433,-0.9479 2.46417,-1.5977 3.41202,-3.412 l 1.17079,-2.2413 v -13.3599 -13.3599 l -1.17079,-2.2413 c -0.94785,-1.8143 -1.59769,-2.4641 -3.41202,-3.412 l -2.24122,-1.1708 h -13.35994 -13.35995 l -2.24122,1.1708 c -1.81433,0.9479 -2.46417,1.5977 -3.41201,3.412 l -1.1708,2.2413 -0.009,13.3028 c -0.0101,14.6736 -0.10765,15.2987 -2.7761,17.8009 -2.50348,2.3475 -3.1696,2.4402 -17.54736,2.4402 h -13.21121 l -2.24122,1.1708 c -1.81433,0.9478 -2.46417,1.5977 -3.41202,3.412 l -1.17079,2.2412 -0.009,53.6708 c -0.009,51.3438 -0.043,53.7437 -0.78797,55.3528 -0.95424,2.0611 -2.68775,3.7372 -4.7609,4.6032 -1.38554,0.5788 -7.64039,0.653 -54.99381,0.653 -47.35341,0 -53.60826,-0.074 -54.99381,-0.653 -2.07314,-0.866 -3.80665,-2.5421 -4.76089,-4.6032 -0.73714,-1.5921 -0.77923,-3.4713 -0.78798,-35.1688 l -0.009,-33.4868 -1.17079,-2.2412 c -0.94785,-1.8144 -1.59769,-2.4642 -3.41202,-3.4121 l -2.24122,-1.1708 -13.30284,-0.01 c -14.67358,-0.01 -15.29866,-0.1077 -17.80092,-2.7761 -2.34752,-2.5035 -2.44016,-3.1696 -2.44016,-17.5474 v -13.2112 l -1.1708,-2.2412 c -0.94785,-1.8143 -1.59769,-2.4642 -3.41201,-3.412 l -2.24123,-1.1708 h -13.21121 c -14.37776,0 -15.04387,-0.093 -17.54736,-2.4402 -2.66891,-2.5027 -2.76688,-3.131 -2.76688,-17.7438 0,-14.6128 0.098,-15.2411 2.76688,-17.7438 2.76071,-2.5887 -0.75589,-2.4402 57.76659,-2.4402 58.52247,0 55.00588,-0.1485 57.76658,2.4402 2.66845,2.5023 2.76592,3.1273 2.7761,17.8009 l 0.009,13.3028 1.17079,2.2413 c 0.94785,1.8143 1.59769,2.4641 3.41202,3.412 l 2.24122,1.1708 h 13.35994 13.35995 l 2.24122,-1.1708 c 1.81433,-0.9479 2.46417,-1.5977 3.41201,-3.412 l 1.1708,-2.2413 v -33.3951 c 0,-36.5041 -0.0955,-35.0273 2.44016,-37.7314 0.62377,-0.6652 1.89099,-1.5598 2.81609,-1.9881 1.60908,-0.745 4.00895,-0.7791 55.35279,-0.788 l 53.67079,-0.01 2.24122,-1.1708 c 1.81433,-0.9479 2.46417,-1.5977 3.41202,-3.412 l 1.17079,-2.2413 v -33.3951 c 0,-36.5041 -0.0955,-35.0272 2.44016,-37.7313 2.50269,-2.6689 3.131,-2.7669 17.74382,-2.7669 14.61273,0 15.24103,0.098 17.74373,2.7669 2.6385,2.8137 2.4402,-6.7988 2.4402,118.3184 0,125.1173 0.1983,115.5049 -2.4402,118.3185 -2.5022,2.6685 -3.1273,2.766 -17.80083,2.7761 l -13.30284,0.01 -2.24122,1.1708 c -1.81433,0.9478 -2.46417,1.5977 -3.41202,3.412 l -1.1708,2.2412 v 13.36 13.3599 l 1.1708,2.2412 c 0.94785,1.8144 1.59769,2.4642 3.41202,3.412 l 2.24122,1.1708 h 13.21121 c 14.37766,0 15.04386,0.093 17.54726,2.4402 2.669,2.5027 2.7669,3.131 2.7669,17.7438 0,14.6128 -0.098,15.2412 -2.7669,17.7439 -2.5034,2.3475 -3.1696,2.4401 -17.54726,2.4401 h -13.21121 l -2.24122,1.1708 c -1.81433,0.9479 -2.46417,1.5977 -3.41202,3.4121 l -1.1708,2.2412 -0.009,13.3028 c -0.0101,14.6736 -0.10765,15.2987 -2.77609,17.8009 -2.50425,2.3483 -3.17154,2.441 -17.49026,2.4309 -11.90586,-0.01 -13.31373,-0.083 -14.83611,-0.7879 z m -90.57496,-121.4775 c 1.81433,-0.9479 2.46417,-1.5977 3.41201,-3.412 l 1.1708,-2.2412 v -13.36 -13.3599 l -1.1708,-2.2412 c -0.94784,-1.8144 -1.59768,-2.4642 -3.41201,-3.4121 l -2.24122,-1.1708 H 836.71844 823.3585 l -2.24122,1.1708 c -1.81433,0.9479 -2.46417,1.5977 -3.41202,3.4121 l -1.17079,2.2412 v 13.3599 13.36 l 1.17079,2.2412 c 0.94785,1.8143 1.59769,2.4641 3.41202,3.412 l 2.24122,1.1708 h 13.35994 13.35995 z m -837.887979,81.1095 c -0.925099,-0.4283 -2.192329,-1.3229 -2.816065,-1.9881 -2.3482541,-2.5042 -2.4409952,-3.1716 -2.4309453,-17.4903 0.010176,-14.5088 0.1116048,-15.1536 2.7761133,-17.6522 2.500096,-2.3444 3.183231,-2.4402 17.39863,-2.4402 14.215397,0 14.898532,0.096 17.398629,2.4402 2.668898,2.5027 2.766874,3.131 2.766874,17.7438 0,14.6128 -0.09798,15.2412 -2.766874,17.7439 -2.504238,2.3482 -3.171517,2.4409 -17.490248,2.4309 -11.905876,-0.01 -13.313725,-0.083 -14.836114,-0.788 z m 40.367949,-40.368 c -0.925099,-0.4283 -2.192329,-1.3229 -2.816064,-1.9881 -2.535693,-2.7041 -2.44018,-1.2273 -2.44018,-37.7313 v -33.3952 l -1.170814,-2.2412 c -0.947814,-1.8144 -1.597688,-2.4642 -3.412013,-3.4121 l -2.241195,-1.1708 H 29.50809 c -14.377745,0 -15.043875,-0.093 -17.547356,-2.4401 -2.6645085,-2.4986 -2.7659246,-3.1435 -2.7761133,-17.6522 -0.01005,-14.3187 0.082691,-14.986 2.4309453,-17.4903 2.502229,-2.6684 3.127314,-2.7659 17.800906,-2.7761 l 13.302842,-0.01 2.241195,-1.1708 c 1.814325,-0.9479 2.464199,-1.5977 3.412013,-3.412 l 1.170814,-2.2413 0.0093,-13.3028 c 0.01018,-14.6736 0.107673,-15.2986 2.776112,-17.8009 2.500097,-2.3444 3.183232,-2.4402 17.398635,-2.4402 14.215398,0 14.898533,0.096 17.39863,2.4402 2.66844,2.5023 2.765924,3.1273 2.776113,17.8009 l 0.0093,13.3028 1.170818,2.2413 c 0.947814,1.8143 1.597687,2.4641 3.412013,3.412 l 2.241195,1.1708 33.486818,0.01 c 31.69755,0.01 33.5767,0.051 35.16882,0.788 0.9251,0.4283 2.19233,1.3229 2.81607,1.9881 2.34825,2.5043 2.44099,3.1716 2.43094,17.4903 -0.0102,14.5087 -0.1116,15.1536 -2.77611,17.6522 -2.70413,2.5356 -1.22727,2.4401 -37.73133,2.4401 H 96.735354 l -2.241195,1.1708 c -1.814326,0.9479 -2.464199,1.5977 -3.412013,3.4121 l -1.170852,2.2412 v 13.3599 13.36 l 1.170818,2.2412 c 0.947814,1.8143 1.597688,2.4641 3.412013,3.412 l 2.241195,1.1708 h 13.21122 c 14.37775,0 15.04388,0.093 17.54736,2.4402 2.66451,2.4985 2.76593,3.1434 2.77611,17.6521 0.01,14.3188 -0.0827,14.9861 -2.43094,17.4903 -0.62374,0.6652 -1.89097,1.5598 -2.81607,1.9881 -1.5926,0.7374 -3.45871,0.7788 -35.111706,0.7788 -31.653001,0 -33.51911,-0.042 -35.111714,-0.7788 z m 322.94364,-201.8397 c -0.9251,-0.4283 -2.19232,-1.323 -2.81609,-1.9882 -2.34824,-2.5042 -2.44096,-3.1715 -2.43091,-17.4902 0.0101,-14.5087 0.1116,-15.1536 2.7761,-17.6522 2.50008,-2.3443 3.18322,-2.4401 17.39863,-2.4401 14.21541,0 14.89855,0.096 17.39863,2.4401 2.66891,2.5027 2.76689,3.131 2.76689,17.7438 0,14.6128 -0.098,15.2411 -2.76689,17.7438 -2.50424,2.3483 -3.17153,2.441 -17.49026,2.4309 -11.90585,-0.01 -13.31373,-0.083 -14.8361,-0.7879 z m 242.20772,0 c -0.9251,-0.4283 -2.19232,-1.323 -2.81608,-1.9882 -2.34824,-2.5042 -2.44096,-3.1715 -2.43091,-17.4902 0.0101,-14.5087 0.1116,-15.1536 2.77609,-17.6522 2.50349,-2.3475 3.1696,-2.4401 17.54736,-2.4401 h 13.21122 l 2.24122,-1.1708 c 1.81433,-0.9479 2.46417,-1.5977 3.41201,-3.412 l 1.1708,-2.2413 v -13.3599 -13.3599 l -1.1708,-2.2413 c -0.94784,-1.8143 -1.59768,-2.4641 -3.41201,-3.412 l -2.24122,-1.1708 h -33.39519 c -36.50407,0 -35.02723,0.095 -37.73134,-2.4401 -0.66519,-0.6238 -1.55984,-1.891 -1.98812,-2.8161 -0.74853,-1.6167 -0.7791,-4.5429 -0.78798,-75.3881 -0.0101,-80.8214 -0.18354,-75.254 2.43091,-78.0422 2.50269,-2.6689 3.131,-2.7668 17.74382,-2.7668 14.61282,0 15.24113,0.098 17.74382,2.7668 2.58897,2.761 2.44016,-0.7706 2.44016,57.9153 v 53.5792 l 1.17079,2.2412 c 0.94785,1.8143 1.59769,2.4642 3.41202,3.412 l 2.24122,1.1708 h 13.35994 13.35995 l 2.24122,-1.1708 c 1.81433,-0.9478 2.46417,-1.5977 3.41201,-3.412 l 1.1708,-2.2412 v -53.7279 -53.7279 l -1.1708,-2.2412 c -0.94784,-1.8143 -1.59768,-2.4642 -3.41201,-3.412 l -2.24122,-1.1708 -13.30284,-0.01 c -14.67359,-0.01 -15.29866,-0.1076 -17.80092,-2.7761 -2.58873,-2.7607 -2.44016,0.7559 -2.44016,-57.7666 0,-58.522398 -0.14857,-55.005898 2.44016,-57.766598 2.50268,-2.6689 3.13099,-2.7668 17.74381,-2.7668 14.61282,0 15.24114,0.098 17.74382,2.7668 2.34753,2.5035 2.44016,3.1696 2.44016,17.5474 v 13.2112 l 1.1708,2.2412 c 0.94785,1.8144 1.59769,2.4642 3.41202,3.4121 l 2.24122,1.1708 13.30283,0.01 c 14.67359,0.01 15.29866,0.1077 17.80093,2.7761 2.63846,2.8138 2.44016,-6.8136 2.44016,118.467298 v 114.1311 l 1.17079,2.2412 c 0.94785,1.8143 1.59769,2.4642 3.41202,3.412 l 2.24122,1.1708 h 13.21121 c 14.37776,0 15.04388,0.093 17.54736,2.4402 0.66519,0.6237 1.55985,1.891 1.98812,2.8161 0.73735,1.5926 0.77877,3.4587 0.77877,35.1117 0,31.6529 -0.0416,33.519 -0.77877,35.1116 -0.95424,2.0612 -2.68774,3.7372 -4.76089,4.6032 -1.38601,0.579 -7.63531,0.652 -55.08544,0.6438 -51.19905,-0.01 -53.59506,-0.043 -55.20406,-0.7879 z m 161.47182,0 c -0.9251,-0.4283 -2.19232,-1.323 -2.81609,-1.9882 -2.34824,-2.5042 -2.44096,-3.1715 -2.43091,-17.4902 0.0101,-14.5087 0.1116,-15.1536 2.7761,-17.6522 2.50349,-2.3475 3.1696,-2.4401 17.54736,-2.4401 h 13.21121 l 2.24122,-1.1708 c 1.81433,-0.9479 2.46417,-1.5977 3.41202,-3.412 l 1.1708,-2.2413 0.009,-13.3028 c 0.0101,-14.6736 0.10765,-15.2987 2.77609,-17.8009 2.76138,-2.5894 -0.7688,-2.4411 57.85822,-2.4309 51.19905,0.01 53.59506,0.043 55.20406,0.7879 0.92509,0.4283 2.19231,1.323 2.81608,1.9882 2.34437,2.5 2.44016,3.1832 2.44016,17.3986 0,14.2154 -0.0958,14.8985 -2.44016,17.3986 -0.62377,0.6652 -1.89099,1.5599 -2.81608,1.9881 -1.59214,0.7372 -3.47127,0.7793 -35.16882,0.788 l -33.48681,0.01 -2.24122,1.1708 c -1.81433,0.9478 -2.46417,1.5977 -3.41202,3.412 l -1.1708,2.2412 v 13.2112 c 0,14.3777 -0.0926,15.0439 -2.44016,17.5473 -0.62377,0.6652 -1.89098,1.5599 -2.81608,1.9882 -1.5926,0.7373 -3.4587,0.7787 -35.11171,0.7787 -31.65302,0 -33.51911,-0.042 -35.11171,-0.7787 z m -524.78341,-40.368 c -0.92509,-0.4282 -2.19232,-1.3229 -2.81606,-1.9881 -2.34825,-2.5042 -2.441,-3.1715 -2.43095,-17.4902 0.0102,-14.5088 0.11161,-15.1537 2.77612,-17.6522 2.50009,-2.3444 3.18323,-2.4402 17.39863,-2.4402 14.2154,0 14.89853,0.096 17.39863,2.4402 2.6689,2.5027 2.76688,3.131 2.76688,17.7438 0,14.6128 -0.098,15.2411 -2.76688,17.7438 -2.50424,2.3483 -3.17152,2.441 -17.49025,2.4309 -11.90588,-0.01 -13.31373,-0.083 -14.83612,-0.788 z m 80.73591,0 c -0.9251,-0.4282 -2.19231,-1.3229 -2.81608,-1.9881 -2.34824,-2.5042 -2.44096,-3.1715 -2.43091,-17.4902 0.0101,-14.5088 0.1116,-15.1537 2.7761,-17.6522 2.50008,-2.3444 3.18322,-2.4402 17.39863,-2.4402 14.2154,0 14.89855,0.096 17.39863,2.4402 2.66891,2.5027 2.76688,3.131 2.76688,17.7438 0,14.6128 -0.098,15.2411 -2.76688,17.7438 -2.50425,2.3483 -3.17154,2.441 -17.49026,2.4309 -11.90586,-0.01 -13.31373,-0.083 -14.83611,-0.788 z m 40.36796,-40.3679 c -0.9251,-0.4283 -2.19232,-1.3229 -2.81609,-1.9881 -2.34824,-2.5043 -2.44096,-3.1716 -2.43091,-17.4903 0.0101,-14.5088 0.1116,-15.1537 2.7761,-17.6522 2.50008,-2.3443 3.18322,-2.4402 17.39863,-2.4402 14.21541,0 14.89855,0.096 17.39863,2.4402 2.66891,2.5027 2.76689,3.131 2.76689,17.7438 0,14.6129 -0.098,15.2412 -2.76689,17.7439 -2.50424,2.3482 -3.17153,2.4409 -17.49026,2.4309 -11.90585,-0.01 -13.31373,-0.083 -14.8361,-0.788 z m 80.7359,0 c -0.92509,-0.4283 -2.19231,-1.3229 -2.81608,-1.9881 -2.34824,-2.5043 -2.44096,-3.1716 -2.43091,-17.4903 0.0101,-14.5088 0.1116,-15.1537 2.7761,-17.6522 2.50008,-2.3443 3.18322,-2.4402 17.39863,-2.4402 14.2154,0 14.89855,0.096 17.39863,2.4402 2.66891,2.5027 2.76688,3.131 2.76688,17.7438 0,14.6129 -0.098,15.2412 -2.76688,17.7439 -2.50424,2.3482 -3.17154,2.4409 -17.49026,2.4309 -11.90585,-0.01 -13.31373,-0.083 -14.83611,-0.788 z M 14.664558,291.13508 c -1.918247,-0.6117 -4.378455,-3.2012 -4.9943613,-5.257 -0.37493,-1.2513 -0.4948102,-34.1526 -0.4948102,-135.7991 V 15.931282 l 1.1708185,-2.2412 c 0.947814,-1.8143 1.597688,-2.4642 3.412013,-3.412 L 15.999413,9.1071823 H 150.23825 c 101.55471,0 134.58685,0.1201 135.6682,0.493 2.27266,0.7837997 3.66929,2.0348997 4.7962,4.2962997 l 1.04841,2.1039 V 150.20468 c 0,101.5282 -0.12002,134.5523 -0.49296,135.6336 -0.7838,2.2727 -2.03486,3.6693 -4.29627,4.7962 l -2.10388,1.0484 -134.37216,-0.043 c -96.368126,-0.031 -134.781997,-0.1736 -135.821232,-0.5049 z m 234.115762,-40.389 c 0.5343,-0.2965 1.33726,-1.094 1.78436,-1.7722 0.79772,-1.2101 0.81266,-3.0499 0.80076,-98.5788 -0.01,-78.368698 -0.11722,-97.534998 -0.55121,-98.317098 -0.29649,-0.5343 -1.09399,-1.3373 -1.77222,-1.7844 -1.20996,-0.7976 -3.06202,-0.8129 -98.49454,-0.8156 -106.925423,0 -98.965759,-0.2019 -100.366266,2.5064 -0.56479,1.0922 -0.637553,12.3768 -0.635097,98.494998 0.0025,95.4325 0.01804,97.2845 0.815664,98.4945 0.447096,0.6782 1.250052,1.4757 1.784356,1.7722 0.782255,0.4341 19.930571,0.5391 98.317103,0.5391 78.38652,0 97.53483,-0.105 98.31709,-0.5391 z m -153.379855,-40.347 c -1.918247,-0.6116 -4.378455,-3.2011 -4.994361,-5.2569 -0.727779,-2.4291 -0.70892,-107.128098 0.01972,-109.560098 0.641665,-2.1417 3.113462,-4.592 5.290245,-5.2441 1.22878,-0.3682 15.323931,-0.4948 55.063301,-0.4948 h 53.41176 l 2.2412,1.1708 c 1.81432,0.9478 2.46419,1.5977 3.41201,3.412 l 1.17082,2.2412 -0.009,53.670798 c -0.009,51.3438 -0.043,53.7437 -0.78798,55.3528 -0.95426,2.0611 -2.68777,3.7372 -4.7609,4.6032 -1.38748,0.5796 -7.58493,0.6482 -55.08544,0.6101 -37.61943,-0.03 -53.952626,-0.1802 -54.971143,-0.505 z m 241.974795,80.4866 c -0.9251,-0.4283 -2.19231,-1.3229 -2.81608,-1.9881 -2.34824,-2.5042 -2.44096,-3.1715 -2.43091,-17.4902 0.0101,-14.5088 0.1116,-15.1537 2.7761,-17.6522 2.50008,-2.3444 3.18322,-2.4402 17.39863,-2.4402 14.2154,0 14.89855,0.096 17.39863,2.4402 2.66891,2.5026 2.76688,3.1309 2.76688,17.7437 0,14.6129 -0.098,15.2412 -2.76688,17.7439 -2.50425,2.3482 -3.17154,2.441 -17.49026,2.4309 -11.90586,-0.01 -13.31373,-0.083 -14.83611,-0.788 z m 80.73591,0 c -0.9251,-0.4283 -2.19232,-1.3229 -2.81608,-1.9881 -2.34824,-2.5042 -2.44096,-3.1715 -2.43091,-17.4902 0.0101,-14.5088 0.1116,-15.1537 2.77609,-17.6522 2.50008,-2.3444 3.18323,-2.4402 17.39863,-2.4402 14.21541,0 14.89855,0.096 17.39863,2.4402 2.66891,2.5026 2.76689,3.1309 2.76689,17.7437 0,14.6129 -0.098,15.2412 -2.76689,17.7439 -2.50424,2.3482 -3.17153,2.441 -17.49025,2.4309 -11.90586,-0.01 -13.31373,-0.083 -14.83611,-0.788 z m 80.73591,0 c -0.9251,-0.4283 -2.19232,-1.3229 -2.81609,-1.9881 -2.53624,-2.7047 -2.441,-1.2292 -2.4309,-37.6742 0.009,-31.5528 0.0509,-33.4282 0.78797,-35.0201 0.95424,-2.0611 2.68775,-3.7372 4.7609,-4.6032 2.31371,-0.9665 26.93799,-0.9665 29.25171,0 2.07314,0.866 3.80665,2.5421 4.76089,4.6032 0.73735,1.5926 0.77877,3.4587 0.77877,35.1117 0,31.653 -0.0416,33.5191 -0.77877,35.1117 -0.42827,0.9251 -1.32293,2.1923 -1.98812,2.8161 -2.50424,2.3482 -3.17153,2.441 -17.49026,2.4309 -11.90585,-0.01 -13.31372,-0.083 -14.8361,-0.788 z m 242.44064,0.2494 c -1.91824,-0.6117 -4.37845,-3.2012 -4.99436,-5.257 -0.37492,-1.2513 -0.4948,-34.1526 -0.4948,-135.7991 V 15.931282 l 1.1708,-2.2412 c 0.94784,-1.8143 1.59768,-2.4642 3.41201,-3.412 l 2.24122,-1.1708997 h 134.23884 c 101.55471,0 134.58677,0.1201 135.66817,0.493 2.2727,0.7837997 3.6693,2.0348997 4.7962,4.2962997 l 1.0484,2.1039 V 150.20468 c 0,101.5282 -0.12,134.5523 -0.493,135.6336 -0.7838,2.2727 -2.0348,3.6693 -4.2962,4.7962 l -2.1039,1.0484 -134.37212,-0.043 c -96.36815,-0.031 -134.782,-0.1736 -135.82126,-0.5049 z m 234.11576,-40.389 c 0.53432,-0.2965 1.33727,-1.094 1.78439,-1.7722 0.79768,-1.2101 0.81265,-3.0499 0.80075,-98.5788 -0.01,-78.368698 -0.11723,-97.534998 -0.55123,-98.317098 -0.29649,-0.5343 -1.09397,-1.3373 -1.7722,-1.7844 -1.20998,-0.7976 -3.06203,-0.8129 -98.49457,-0.8156 -106.92541,0 -98.96574,-0.2019 -100.36625,2.5064 -0.56477,1.0922 -0.63752,12.3768 -0.63508,98.494998 0.004,95.4325 0.0181,97.2845 0.81564,98.4945 0.44712,0.6782 1.25006,1.4757 1.78439,1.7722 0.78226,0.4341 19.93054,0.5391 98.31708,0.5391 78.38653,0 97.53482,-0.105 98.31708,-0.5391 z m -153.37985,-40.347 c -1.91824,-0.6116 -4.37846,-3.2011 -4.99436,-5.2569 -0.72776,-2.4291 -0.70892,-107.128098 0.0198,-109.560098 0.64168,-2.1417 3.11347,-4.592 5.29027,-5.2441 1.22878,-0.3682 15.32392,-0.4948 55.06327,-0.4948 h 53.41177 l 2.24122,1.1708 c 1.81433,0.9478 2.46417,1.5977 3.41201,3.412 l 1.1708,2.2412 -0.009,53.670798 c -0.009,51.3438 -0.043,53.7437 -0.78797,55.3528 -0.95424,2.0611 -2.68775,3.7372 -4.7609,4.6032 -1.38748,0.5796 -7.58493,0.6482 -55.08544,0.6101 -37.6194,-0.03 -53.95261,-0.1802 -54.97114,-0.505 z m -444.28041,40.1187 c -0.9251,-0.4283 -2.19232,-1.323 -2.81609,-1.9882 -2.34752,-2.5034 -2.44016,-3.1696 -2.44016,-17.5473 v -13.2113 l -1.17079,-2.2411 c -0.94785,-1.8144 -1.59769,-2.4642 -3.41202,-3.412 l -2.24122,-1.1709 -13.30284,-0.01 c -14.67358,-0.01 -15.29866,-0.1077 -17.80092,-2.7761 -2.58872,-2.7607 -2.44016,0.7559 -2.44016,-57.7666 0,-58.522498 -0.14856,-55.005898 2.44016,-57.766598 2.49856,-2.6645 3.14344,-2.7659 17.65219,-2.7761 14.31872,-0.01 14.98601,0.083 17.49026,2.431 2.66844,2.5022 2.76592,3.1272 2.77609,17.800898 l 0.009,13.3028 1.1708,2.2412 c 0.94785,1.8143 1.59769,2.4642 3.41202,3.412 l 2.24122,1.1708 13.30284,0.01 c 14.67358,0.01 15.29865,0.1076 17.80092,2.7761 2.34752,2.5035 2.44016,3.1696 2.44016,17.5474 v 13.2112 l 1.17079,2.2411 c 0.94785,1.8144 1.59769,2.4643 3.41202,3.4121 l 2.24122,1.1708 h 13.35994 13.35995 l 2.24122,-1.1708 c 1.81433,-0.9478 2.46417,-1.5977 3.41201,-3.4121 l 1.1708,-2.2411 v -33.3952 c 0,-36.504098 -0.0955,-35.027298 2.44016,-37.731398 0.62377,-0.6651 1.89099,-1.5598 2.81608,-1.9881 1.59214,-0.7372 3.47127,-0.7793 35.16882,-0.788 l 33.48681,-0.01 2.24122,-1.1708 c 1.81433,-0.9479 2.46417,-1.5977 3.41202,-3.4121 l 1.1708,-2.2412 0.009,-13.3028 c 0.0101,-14.6736 0.10765,-15.2987 2.7761,-17.8009 2.50424,-2.3483 3.17153,-2.441 17.49025,-2.431 14.50875,0.01 15.15363,0.1116 17.65219,2.7761 2.58936,2.7614 2.44105,-0.7687 2.43091,57.858298 -0.009,51.199 -0.043,53.5951 -0.78797,55.204 -0.42828,0.9251 -1.32294,2.1924 -1.98812,2.8161 -2.50008,2.3444 -3.18323,2.4402 -17.39863,2.4402 -14.21541,0 -14.89855,-0.096 -17.39863,-2.4402 -2.66845,-2.5022 -2.76592,-3.1273 -2.7761,-17.8009 l -0.009,-13.3029 -1.1708,-2.2411 c -0.94785,-1.8144 -1.59769,-2.4642 -3.41202,-3.4121 l -2.24122,-1.1708 h -13.35994 -13.35994 l -2.24122,1.1708 c -1.81433,0.9479 -2.46417,1.5977 -3.41202,3.4121 l -1.1708,2.2411 -0.009,33.4869 c -0.009,31.6975 -0.0508,33.5767 -0.78797,35.1688 -0.42828,0.9251 -1.32293,2.1923 -1.98812,2.8161 -2.70411,2.5357 -1.22727,2.4401 -37.73134,2.4401 h -33.39519 l -2.24122,1.1709 c -1.81433,0.9478 -2.46417,1.5976 -3.41202,3.412 l -1.17079,2.2411 -0.009,13.3029 c -0.0101,14.6736 -0.10765,15.2987 -2.7761,17.8009 -2.50424,2.3482 -3.17153,2.441 -17.49026,2.431 -11.90585,-0.01 -13.31373,-0.083 -14.8361,-0.788 z M 337.37526,48.677982 c -0.9251,-0.4283 -2.19231,-1.323 -2.81608,-1.9881 -2.34824,-2.5043 -2.44096,-3.1716 -2.43091,-17.4903 0.0101,-14.5088 0.1116,-15.1536 2.7761,-17.6522 2.70347,-2.5350997 1.2419,-2.4401997 37.5826,-2.4401997 36.34071,0 34.87913,-0.095 37.58261,2.4401997 2.6645,2.4986 2.76592,3.1434 2.7761,17.6522 0.0101,14.3187 -0.0827,14.986 -2.43091,17.4903 -0.62377,0.6651 -1.89099,1.5598 -2.81609,1.9881 -1.5926,0.7374 -3.45869,0.7787 -35.11171,0.7787 -31.65301,0 -33.51911,-0.041 -35.11171,-0.7787 z m 242.20773,0 c -0.9251,-0.4283 -2.19232,-1.323 -2.81609,-1.9881 -2.34824,-2.5043 -2.44096,-3.1716 -2.43091,-17.4903 0.0101,-14.5088 0.1116,-15.1536 2.7761,-17.6522 2.50008,-2.3442997 3.18322,-2.4401997 17.39863,-2.4401997 14.21541,0 14.89855,0.096 17.39863,2.4401997 2.66891,2.5027 2.76689,3.131 2.76689,17.7438 0,14.6128 -0.098,15.2412 -2.76689,17.7438 -2.50424,2.3483 -3.17153,2.441 -17.49026,2.4309 -11.90585,-0.01 -13.31373,-0.083 -14.8361,-0.7879 z m 80.73591,0 c -0.9251,-0.4283 -2.19232,-1.323 -2.81609,-1.9881 -2.34824,-2.5043 -2.44096,-3.1716 -2.43091,-17.4903 0.0101,-14.5088 0.1116,-15.1536 2.7761,-17.6522 2.50008,-2.3442997 3.18322,-2.4401997 17.39863,-2.4401997 14.2154,0 14.89855,0.096 17.39863,2.4401997 2.66891,2.5027 2.76689,3.131 2.76689,17.7438 0,14.6128 -0.098,15.2412 -2.76689,17.7438 -2.50424,2.3483 -3.17154,2.441 -17.49026,2.4309 -11.90585,-0.01 -13.31373,-0.083 -14.8361,-0.7879 z"
   id="path3767"
   inkscape:connector-curvature="0" />
</svg>