<?xml version="1.0" encoding="UTF-8" standalone="no"?>
<!-- Created with Inkscape (http://www.inkscape.org/) -->

<svg
   xmlns:dc="http://purl.org/dc/elements/1.1/"
   xmlns:cc="http://creativecommons.org/ns#"
   xmlns:rdf="http://www.w3.org/1999/02/22-rdf-syntax-ns#"
   xmlns:svg="http://www.w3.org/2000/svg"
   xmlns="http://www.w3.org/2000/svg"
   xmlns:sodipodi="http://sodipodi.sourceforge.net/DTD/sodipodi-0.dtd"
   xmlns:inkscape="http://www.inkscape.org/namespaces/inkscape"
   width="358.97714mm"
   height="13.706046mm"
   viewBox="0 0 358.97715 13.706046"
   version="1.1"
   id="svg9307"
   inkscape:version="0.92.4 (f8dce91, 2019-08-02)"
   sodipodi:docname="text.svg">
  <defs
     id="defs9301" />
  <sodipodi:namedview
     id="base"
     pagecolor="#ffffff"
     bordercolor="#666666"
     borderopacity="1.0"
     inkscape:pageopacity="0.0"
     inkscape:pageshadow="2"
     inkscape:zoom="0.7"
     inkscape:cx="450.54437"
     inkscape:cy="-145.83874"
     inkscape:document-units="mm"
     inkscape:current-layer="layer1"
     showgrid="false"
     fit-margin-top="0"
     fit-margin-left="0"
     fit-margin-right="0"
     fit-margin-bottom="0"
     inkscape:window-width="1853"
     inkscape:window-height="1025"
     inkscape:window-x="67"
     inkscape:window-y="27"
     inkscape:window-maximized="1" />
  <metadata
     id="metadata9304">
    <rdf:RDF>
      <cc:Work
         rdf:about="">
        <dc:format>image/svg+xml</dc:format>
        <dc:type
           rdf:resource="http://purl.org/dc/dcmitype/StillImage" />
        <dc:title></dc:title>
      </cc:Work>
    </rdf:RDF>
  </metadata>
  <g
     inkscape:label="Layer 1"
     inkscape:groupmode="layer"
     id="layer1"
     transform="translate(413.80096,-89.135652)">
    <g
       aria-label="With Welcome QR you will never need a reprint again..."
       transform="matrix(0.25123578,0,0,0.2467142,15.264489,6.3187116)"
       style="font-style:normal;font-variant:normal;font-weight:normal;font-stretch:normal;font-size:40px;line-height:1.25;font-family:'URW Gothic L';-inkscape-font-specification:'URW Gothic L';letter-spacing:0px;word-spacing:0px;fill:none;fill-opacity:1;stroke:#f44336;stroke-width:3.98096633;stroke-miterlimit:4;stroke-dasharray:none;stroke-opacity:1"
       id="flowRoot9309">
      <path
         d="m -1693.9282,377.77686 h 5.12 l 8.64,-32.32 8.7467,32.32 h 5.0667 l 11.3066,-39.41333 h -4.0533 l -9.7067,34.29333 -9.44,-34.29333 h -3.7333 l -9.44,34.29333 -9.7067,-34.29333 h -4.0533 z"
         style="font-style:normal;font-variant:normal;font-weight:normal;font-stretch:normal;font-size:53.33333588px;font-family:'URW Gothic L';-inkscape-font-specification:'URW Gothic L';fill:none;fill-opacity:1;stroke:#f44336;stroke-width:3.98096633;stroke-miterlimit:4;stroke-dasharray:none;stroke-opacity:1"
         id="path9915"
         inkscape:connector-curvature="0" />
      <path
         d="m -1651.1048,377.77686 h 3.9466 v -29.17333 h -3.9466 z m 0,-32.69333 h 3.9466 v -6.72 h -3.9466 z"
         style="font-style:normal;font-variant:normal;font-weight:normal;font-stretch:normal;font-size:53.33333588px;font-family:'URW Gothic L';-inkscape-font-specification:'URW Gothic L';fill:none;fill-opacity:1;stroke:#f44336;stroke-width:3.98096633;stroke-miterlimit:4;stroke-dasharray:none;stroke-opacity:1"
         id="path9917"
         inkscape:connector-curvature="0" />
      <path
         d="m -1636.9065,377.77686 h 3.9467 v -25.6 h 6.56 v -3.57333 h -6.56 v -10.24 h -3.9467 v 10.24 h -6.2933 v 3.57333 h 6.2933 z"
         style="font-style:normal;font-variant:normal;font-weight:normal;font-stretch:normal;font-size:53.33333588px;font-family:'URW Gothic L';-inkscape-font-specification:'URW Gothic L';fill:none;fill-opacity:1;stroke:#f44336;stroke-width:3.98096633;stroke-miterlimit:4;stroke-dasharray:none;stroke-opacity:1"
         id="path9919"
         inkscape:connector-curvature="0" />
      <path
         d="m -1622.3548,377.77686 h 3.9466 v -16 c 0,-3.14667 0.4267,-5.01333 1.6,-6.61333 1.6,-2.29334 4.32,-3.62667 7.3067,-3.62667 2.8267,0 5.4933,1.22667 7.04,3.2 1.3867,1.70667 1.9733,3.94667 1.9733,7.36 v 15.68 h 3.9467 v -15.68 c 0,-4.37333 -0.8,-7.36 -2.5067,-9.65333 -2.1866,-2.88 -5.8666,-4.53334 -10.08,-4.53334 -4,0 -7.3066,1.6 -9.28,4.48 v -14.02666 h -3.9466 z"
         style="font-style:normal;font-variant:normal;font-weight:normal;font-stretch:normal;font-size:53.33333588px;font-family:'URW Gothic L';-inkscape-font-specification:'URW Gothic L';fill:none;fill-opacity:1;stroke:#f44336;stroke-width:3.98096633;stroke-miterlimit:4;stroke-dasharray:none;stroke-opacity:1"
         id="path9921"
         inkscape:connector-curvature="0" />
      <path
         d="m -1566.6365,377.77686 h 5.12 l 8.64,-32.32 8.7467,32.32 h 5.0666 l 11.3067,-39.41333 h -4.0533 l -9.7067,34.29333 -9.44,-34.29333 h -3.7333 l -9.44,34.29333 -9.7067,-34.29333 h -4.0533 z"
         style="font-style:normal;font-variant:normal;font-weight:normal;font-stretch:normal;font-size:53.33333588px;font-family:'URW Gothic L';-inkscape-font-specification:'URW Gothic L';fill:none;fill-opacity:1;stroke:#f44336;stroke-width:3.98096633;stroke-miterlimit:4;stroke-dasharray:none;stroke-opacity:1"
         id="path9923"
         inkscape:connector-curvature="0" />
      <path
         d="m -1494.5865,364.49686 c 0,-4 -0.5333,-6.45333 -1.9733,-9.01333 -2.6134,-4.64 -7.68,-7.57334 -13.2267,-7.57334 -8.48,0 -15.1467,6.66667 -15.1467,15.14667 0,8.64 6.7734,15.41333 15.4134,15.41333 3.7333,0 7.2533,-1.38666 9.92,-3.89333 2.08,-1.97333 3.4666,-4 4.2666,-6.4 h -4.1066 c -1.6534,4 -5.76,6.66667 -10.1867,6.66667 -5.9733,0 -11.04,-4.58667 -11.36,-10.34667 z m -26.2933,-3.57333 c 1.0666,-5.6 5.4933,-9.38667 11.04,-9.38667 5.6533,0 9.9733,3.57333 11.3066,9.38667 z"
         style="font-style:normal;font-variant:normal;font-weight:normal;font-stretch:normal;font-size:53.33333588px;font-family:'URW Gothic L';-inkscape-font-specification:'URW Gothic L';fill:none;fill-opacity:1;stroke:#f44336;stroke-width:3.98096633;stroke-miterlimit:4;stroke-dasharray:none;stroke-opacity:1"
         id="path9925"
         inkscape:connector-curvature="0" />
      <path
         d="m -1489.1257,377.77686 h 3.9467 v -39.41333 h -3.9467 z"
         style="font-style:normal;font-variant:normal;font-weight:normal;font-stretch:normal;font-size:53.33333588px;font-family:'URW Gothic L';-inkscape-font-specification:'URW Gothic L';fill:none;fill-opacity:1;stroke:#f44336;stroke-width:3.98096633;stroke-miterlimit:4;stroke-dasharray:none;stroke-opacity:1"
         id="path9927"
         inkscape:connector-curvature="0" />
      <path
         d="m -1453.914,369.19019 c -3.04,4.05334 -5.8667,5.65334 -9.9733,5.65334 -6.56,0 -11.7334,-5.17334 -11.7334,-11.62667 0,-6.56 5.0667,-11.68 11.5734,-11.68 4.32,0 7.8933,2.08 10.1333,5.92 h 4.4267 c -2.3467,-5.86667 -7.9467,-9.54667 -14.5067,-9.54667 -8.7467,0 -15.6267,6.72 -15.6267,15.2 0,8.69334 6.9334,15.36 15.8934,15.36 3.6266,0 6.9866,-1.17333 9.7066,-3.30666 1.8667,-1.49334 2.9867,-2.93334 4.5867,-5.97334 z"
         style="font-style:normal;font-variant:normal;font-weight:normal;font-stretch:normal;font-size:53.33333588px;font-family:'URW Gothic L';-inkscape-font-specification:'URW Gothic L';fill:none;fill-opacity:1;stroke:#f44336;stroke-width:3.98096633;stroke-miterlimit:4;stroke-dasharray:none;stroke-opacity:1"
         id="path9929"
         inkscape:connector-curvature="0" />
      <path
         d="m -1429.8348,347.91019 c -8.64,0 -15.3067,6.56 -15.3067,15.09334 0,8.96 6.56,15.46666 15.6267,15.46666 8.5333,0 14.8266,-6.45333 14.8266,-15.2 0,-8.90666 -6.4,-15.36 -15.1466,-15.36 z m 0,3.62667 c 6.4,0 11.1466,5.01333 11.1466,11.78667 0,6.66666 -4.5866,11.52 -10.9333,11.52 -6.72,0 -11.52,-4.90667 -11.52,-11.73334 0,-6.61333 4.8533,-11.57333 11.3067,-11.57333 z"
         style="font-style:normal;font-variant:normal;font-weight:normal;font-stretch:normal;font-size:53.33333588px;font-family:'URW Gothic L';-inkscape-font-specification:'URW Gothic L';fill:none;fill-opacity:1;stroke:#f44336;stroke-width:3.98096633;stroke-miterlimit:4;stroke-dasharray:none;stroke-opacity:1"
         id="path9931"
         inkscape:connector-curvature="0" />
      <path
         d="m -1409.1257,377.77686 h 3.9467 v -17.01333 c 0,-5.81334 2.9333,-9.22667 7.84,-9.22667 2.4,0 4.64,0.96 6.08,2.66667 1.28,1.49333 1.8133,3.52 1.8133,6.56 v 17.01333 h 3.9467 v -16.90667 c 0,-2.82666 0.4267,-4.64 1.3867,-6.02666 1.3866,-2.13334 3.84,-3.36 6.6133,-3.36 2.56,0 4.8,1.01333 6.1333,2.77333 1.0667,1.49333 1.6,3.68 1.6,6.61333 v 16.90667 h 3.9467 v -17.33333 c 0,-3.84 -0.6933,-6.34667 -2.3467,-8.42667 -2.0266,-2.66667 -5.3333,-4.16 -9.12,-4.16 -4.5333,0 -7.68,1.76 -10.1333,5.65333 -2.2933,-3.89333 -5.1733,-5.6 -9.5467,-5.6 -3.68,0 -5.9733,1.12 -8.2133,4.05334 v -3.36 h -3.9467 z"
         style="font-style:normal;font-variant:normal;font-weight:normal;font-stretch:normal;font-size:53.33333588px;font-family:'URW Gothic L';-inkscape-font-specification:'URW Gothic L';fill:none;fill-opacity:1;stroke:#f44336;stroke-width:3.98096633;stroke-miterlimit:4;stroke-dasharray:none;stroke-opacity:1"
         id="path9933"
         inkscape:connector-curvature="0" />
      <path
         d="m -1329.899,364.49686 c 0,-4 -0.5333,-6.45333 -1.9733,-9.01333 -2.6134,-4.64 -7.68,-7.57334 -13.2267,-7.57334 -8.48,0 -15.1467,6.66667 -15.1467,15.14667 0,8.64 6.7734,15.41333 15.4134,15.41333 3.7333,0 7.2533,-1.38666 9.92,-3.89333 2.08,-1.97333 3.4666,-4 4.2666,-6.4 h -4.1066 c -1.6534,4 -5.76,6.66667 -10.1867,6.66667 -5.9733,0 -11.04,-4.58667 -11.36,-10.34667 z m -26.2933,-3.57333 c 1.0666,-5.6 5.4933,-9.38667 11.04,-9.38667 5.6533,0 9.9733,3.57333 11.3066,9.38667 z"
         style="font-style:normal;font-variant:normal;font-weight:normal;font-stretch:normal;font-size:53.33333588px;font-family:'URW Gothic L';-inkscape-font-specification:'URW Gothic L';fill:none;fill-opacity:1;stroke:#f44336;stroke-width:3.98096633;stroke-miterlimit:4;stroke-dasharray:none;stroke-opacity:1"
         id="path9935"
         inkscape:connector-curvature="0" />
      <path
         d="m -1268.8998,374.79019 c -0.32,0.0533 -0.64,0.0533 -0.8,0.0533 -1.6534,0 -3.0934,-0.58667 -5.12,-2.02667 4.2666,-3.62667 6.56,-8.8 6.56,-14.82667 0,-11.68 -9.0134,-20.32 -21.0667,-20.32 -12.16,0 -21.3333,8.74667 -21.3333,20.42667 0,11.30667 9.44,20.37333 21.28,20.37333 4.32,0 8.5333,-1.17333 11.84,-3.41333 2.72,2.50667 4.96,3.36 8.64,3.41333 z m -35.52,-8.53333 c 2.1333,-0.85333 3.7333,-1.12 6.1866,-1.12 6.72,0 11.7867,2.13333 17.4934,7.30667 -2.6667,1.65333 -5.3334,2.4 -8.64,2.4 -3.84,0 -7.52,-1.22667 -10.4534,-3.46667 -2.1333,-1.6 -3.5733,-3.25333 -4.5866,-5.12 z m -1.6534,-3.36 c -0.4266,-1.92 -0.5866,-3.04 -0.5866,-4.48 0,-9.70667 7.4666,-17.12 17.2266,-17.12 9.7067,0 17.1734,7.25333 17.1734,16.69333 0,4.64 -1.76,8.74667 -5.3867,12.21334 -1.8667,-1.65334 -3.4133,-2.82667 -5.0133,-4 -4.4267,-3.14667 -9.3867,-4.69334 -14.9867,-4.69334 -3.04,0 -5.3867,0.37334 -8.4267,1.38667 z"
         style="font-style:normal;font-variant:normal;font-weight:normal;font-stretch:normal;font-size:53.33333588px;font-family:'URW Gothic L';-inkscape-font-specification:'URW Gothic L';fill:none;fill-opacity:1;stroke:#f44336;stroke-width:3.98096633;stroke-miterlimit:4;stroke-dasharray:none;stroke-opacity:1"
         id="path9937"
         inkscape:connector-curvature="0" />
      <path
         d="m -1247.4015,363.05686 c 7.5733,-0.8 11.6267,-5.01333 11.6267,-12 0,-4.96 -2.08,-8.69333 -5.92,-10.77333 -2.4534,-1.33334 -5.8667,-1.92 -11.04,-1.92 h -9.76 v 39.41333 h 3.9466 v -35.84 h 5.5467 c 4.16,0 6.9333,0.42667 9.0667,1.44 2.6666,1.28 4.16,3.94667 4.16,7.52 0,4.48 -2.0267,7.25333 -5.9734,8.32 -1.8666,0.48 -4.4266,0.69333 -8.8,0.69333 l 13.28,17.86667 h 4.9067 z"
         style="font-style:normal;font-variant:normal;font-weight:normal;font-stretch:normal;font-size:53.33333588px;font-family:'URW Gothic L';-inkscape-font-specification:'URW Gothic L';fill:none;fill-opacity:1;stroke:#f44336;stroke-width:3.98096633;stroke-miterlimit:4;stroke-dasharray:none;stroke-opacity:1"
         id="path9939"
         inkscape:connector-curvature="0" />
      <path
         d="m -1212.3207,388.01686 h 4.2134 l 16.8533,-39.41333 h -4.2133 l -9.8667,23.25333 -9.2267,-23.25333 h -4.32 l 11.3067,28.21333 z"
         style="font-style:normal;font-variant:normal;font-weight:normal;font-stretch:normal;font-size:53.33333588px;font-family:'URW Gothic L';-inkscape-font-specification:'URW Gothic L';fill:none;fill-opacity:1;stroke:#f44336;stroke-width:3.98096633;stroke-miterlimit:4;stroke-dasharray:none;stroke-opacity:1"
         id="path9941"
         inkscape:connector-curvature="0" />
      <path
         d="m -1173.2723,347.91019 c -8.64,0 -15.3067,6.56 -15.3067,15.09334 0,8.96 6.56,15.46666 15.6267,15.46666 8.5333,0 14.8267,-6.45333 14.8267,-15.2 0,-8.90666 -6.4,-15.36 -15.1467,-15.36 z m 0,3.62667 c 6.4,0 11.1467,5.01333 11.1467,11.78667 0,6.66666 -4.5867,11.52 -10.9334,11.52 -6.72,0 -11.52,-4.90667 -11.52,-11.73334 0,-6.61333 4.8534,-11.57333 11.3067,-11.57333 z"
         style="font-style:normal;font-variant:normal;font-weight:normal;font-stretch:normal;font-size:53.33333588px;font-family:'URW Gothic L';-inkscape-font-specification:'URW Gothic L';fill:none;fill-opacity:1;stroke:#f44336;stroke-width:3.98096633;stroke-miterlimit:4;stroke-dasharray:none;stroke-opacity:1"
         id="path9943"
         inkscape:connector-curvature="0" />
      <path
         d="m -1126.8565,348.60353 h -3.9467 v 14.98666 c 0,3.57334 -0.5333,5.81334 -1.76,7.62667 -1.6533,2.29333 -4.2666,3.62667 -7.3066,3.62667 -3.2534,0 -6.0267,-1.33334 -7.36,-3.68 -0.9067,-1.49334 -1.3867,-3.84 -1.3867,-6.82667 v -15.73333 h -3.9467 v 15.73333 c 0,4.32 0.7467,7.36 2.2934,9.49333 2.1866,3.04 5.7066,4.64 10.08,4.64 4.5333,0 7.4133,-1.6 9.3866,-5.22666 v 4.53333 h 3.9467 z"
         style="font-style:normal;font-variant:normal;font-weight:normal;font-stretch:normal;font-size:53.33333588px;font-family:'URW Gothic L';-inkscape-font-specification:'URW Gothic L';fill:none;fill-opacity:1;stroke:#f44336;stroke-width:3.98096633;stroke-miterlimit:4;stroke-dasharray:none;stroke-opacity:1"
         id="path9945"
         inkscape:connector-curvature="0" />
      <path
         d="m -1097.2157,377.77686 h 4.2667 l 6.2933,-19.36 6.3467,19.36 h 4.2133 l 11.3067,-29.17333 h -3.84 l -9.4933,24.42666 -6.88,-20.85333 h -3.2534 l -6.88,20.85333 -9.28,-24.42666 h -3.9466 z"
         style="font-style:normal;font-variant:normal;font-weight:normal;font-stretch:normal;font-size:53.33333588px;font-family:'URW Gothic L';-inkscape-font-specification:'URW Gothic L';fill:none;fill-opacity:1;stroke:#f44336;stroke-width:3.98096633;stroke-miterlimit:4;stroke-dasharray:none;stroke-opacity:1"
         id="path9947"
         inkscape:connector-curvature="0" />
      <path
         d="m -1061.1048,377.77686 h 3.9467 v -29.17333 h -3.9467 z m 0,-32.69333 h 3.9467 v -6.72 h -3.9467 z"
         style="font-style:normal;font-variant:normal;font-weight:normal;font-stretch:normal;font-size:53.33333588px;font-family:'URW Gothic L';-inkscape-font-specification:'URW Gothic L';fill:none;fill-opacity:1;stroke:#f44336;stroke-width:3.98096633;stroke-miterlimit:4;stroke-dasharray:none;stroke-opacity:1"
         id="path9949"
         inkscape:connector-curvature="0" />
      <path
         d="m -1050.4798,377.77686 h 3.9467 v -39.41333 h -3.9467 z"
         style="font-style:normal;font-variant:normal;font-weight:normal;font-stretch:normal;font-size:53.33333588px;font-family:'URW Gothic L';-inkscape-font-specification:'URW Gothic L';fill:none;fill-opacity:1;stroke:#f44336;stroke-width:3.98096633;stroke-miterlimit:4;stroke-dasharray:none;stroke-opacity:1"
         id="path9951"
         inkscape:connector-curvature="0" />
      <path
         d="m -1039.8548,377.77686 h 3.9467 v -39.41333 h -3.9467 z"
         style="font-style:normal;font-variant:normal;font-weight:normal;font-stretch:normal;font-size:53.33333588px;font-family:'URW Gothic L';-inkscape-font-specification:'URW Gothic L';fill:none;fill-opacity:1;stroke:#f44336;stroke-width:3.98096633;stroke-miterlimit:4;stroke-dasharray:none;stroke-opacity:1"
         id="path9953"
         inkscape:connector-curvature="0" />
      <path
         d="m -1014.4382,377.77686 h 3.9467 v -16.05333 c 0,-3.25334 0.4267,-4.96 1.5467,-6.61334 1.5466,-2.24 4.2666,-3.57333 7.36,-3.57333 2.87998,0 5.49331,1.17333 7.09331,3.14667 1.38667,1.81333 1.92,3.94666 1.92,7.78666 v 15.30667 h 3.94667 v -15.30667 c 0,-4.90666 -0.69334,-7.52 -2.56,-10.02666 -2.29334,-2.88 -5.81334,-4.53334 -9.91998,-4.53334 -3.84,0 -6.9334,1.49334 -9.3867,4.48 v -3.78666 h -3.9467 z"
         style="font-style:normal;font-variant:normal;font-weight:normal;font-stretch:normal;font-size:53.33333588px;font-family:'URW Gothic L';-inkscape-font-specification:'URW Gothic L';fill:none;fill-opacity:1;stroke:#f44336;stroke-width:3.98096633;stroke-miterlimit:4;stroke-dasharray:none;stroke-opacity:1"
         id="path9955"
         inkscape:connector-curvature="0" />
      <path
         d="m -952.71149,364.49686 c 0,-4 -0.53333,-6.45333 -1.97333,-9.01333 -2.61334,-4.64 -7.68,-7.57334 -13.22667,-7.57334 -8.48,0 -15.14667,6.66667 -15.14667,15.14667 0,8.64 6.77334,15.41333 15.41334,15.41333 3.73333,0 7.25333,-1.38666 9.92,-3.89333 2.08,-1.97333 3.46666,-4 4.26666,-6.4 h -4.10666 c -1.65334,4 -5.76,6.66667 -10.18667,6.66667 -5.97333,0 -11.04,-4.58667 -11.36,-10.34667 z m -26.29333,-3.57333 c 1.06666,-5.6 5.49333,-9.38667 11.04,-9.38667 5.65333,0 9.97333,3.57333 11.30666,9.38667 z"
         style="font-style:normal;font-variant:normal;font-weight:normal;font-stretch:normal;font-size:53.33333588px;font-family:'URW Gothic L';-inkscape-font-specification:'URW Gothic L';fill:none;fill-opacity:1;stroke:#f44336;stroke-width:3.98096633;stroke-miterlimit:4;stroke-dasharray:none;stroke-opacity:1"
         id="path9957"
         inkscape:connector-curvature="0" />
      <path
         d="m -937.91732,377.77686 h 4.16 l 12.26666,-29.17333 h -4 l -10.45333,24.53333 -10.24,-24.53333 h -4 z"
         style="font-style:normal;font-variant:normal;font-weight:normal;font-stretch:normal;font-size:53.33333588px;font-family:'URW Gothic L';-inkscape-font-specification:'URW Gothic L';fill:none;fill-opacity:1;stroke:#f44336;stroke-width:3.98096633;stroke-miterlimit:4;stroke-dasharray:none;stroke-opacity:1"
         id="path9959"
         inkscape:connector-curvature="0" />
      <path
         d="m -888.44061,364.49686 c 0,-4 -0.53334,-6.45333 -1.97334,-9.01333 -2.61333,-4.64 -7.68,-7.57334 -13.22667,-7.57334 -8.48,0 -15.14666,6.66667 -15.14666,15.14667 0,8.64 6.77333,15.41333 15.41333,15.41333 3.73333,0 7.25334,-1.38666 9.92,-3.89333 2.08,-1.97333 3.46667,-4 4.26667,-6.4 h -4.10667 c -1.65333,4 -5.76,6.66667 -10.18667,6.66667 -5.97333,0 -11.04,-4.58667 -11.36,-10.34667 z m -26.29334,-3.57333 c 1.06667,-5.6 5.49333,-9.38667 11.04,-9.38667 5.65334,0 9.97334,3.57333 11.30667,9.38667 z"
         style="font-style:normal;font-variant:normal;font-weight:normal;font-stretch:normal;font-size:53.33333588px;font-family:'URW Gothic L';-inkscape-font-specification:'URW Gothic L';fill:none;fill-opacity:1;stroke:#f44336;stroke-width:3.98096633;stroke-miterlimit:4;stroke-dasharray:none;stroke-opacity:1"
         id="path9961"
         inkscape:connector-curvature="0" />
      <path
         d="m -882.97978,377.77686 h 3.94666 v -17.01333 c 0,-5.44 2.77334,-8.42667 8.26667,-8.96 v -3.89334 c -4.21333,0.21334 -6.72,1.65334 -8.26667,4.85334 v -4.16 h -3.94666 z"
         style="font-style:normal;font-variant:normal;font-weight:normal;font-stretch:normal;font-size:53.33333588px;font-family:'URW Gothic L';-inkscape-font-specification:'URW Gothic L';fill:none;fill-opacity:1;stroke:#f44336;stroke-width:3.98096633;stroke-miterlimit:4;stroke-dasharray:none;stroke-opacity:1"
         id="path9963"
         inkscape:connector-curvature="0" />
      <path
         d="m -852.14647,377.77686 h 3.94667 v -16.05333 c 0,-3.25334 0.42666,-4.96 1.54666,-6.61334 1.54667,-2.24 4.26667,-3.57333 7.36,-3.57333 2.88,0 5.49334,1.17333 7.09334,3.14667 1.38666,1.81333 1.92,3.94666 1.92,7.78666 v 15.30667 h 3.94666 v -15.30667 c 0,-4.90666 -0.69333,-7.52 -2.56,-10.02666 -2.29333,-2.88 -5.81333,-4.53334 -9.92,-4.53334 -3.84,0 -6.93333,1.49334 -9.38666,4.48 v -3.78666 h -3.94667 z"
         style="font-style:normal;font-variant:normal;font-weight:normal;font-stretch:normal;font-size:53.33333588px;font-family:'URW Gothic L';-inkscape-font-specification:'URW Gothic L';fill:none;fill-opacity:1;stroke:#f44336;stroke-width:3.98096633;stroke-miterlimit:4;stroke-dasharray:none;stroke-opacity:1"
         id="path9965"
         inkscape:connector-curvature="0" />
      <path
         d="m -790.4198,364.49686 c 0,-4 -0.53333,-6.45333 -1.97333,-9.01333 -2.61334,-4.64 -7.68001,-7.57334 -13.22667,-7.57334 -8.48,0 -15.14667,6.66667 -15.14667,15.14667 0,8.64 6.77333,15.41333 15.41333,15.41333 3.73334,0 7.25334,-1.38666 9.92,-3.89333 2.08001,-1.97333 3.46667,-4 4.26667,-6.4 h -4.10667 c -1.65333,4 -5.76,6.66667 -10.18666,6.66667 -5.97334,0 -11.04,-4.58667 -11.36,-10.34667 z m -26.29334,-3.57333 c 1.06667,-5.6 5.49334,-9.38667 11.04,-9.38667 5.65334,0 9.97334,3.57333 11.30667,9.38667 z"
         style="font-style:normal;font-variant:normal;font-weight:normal;font-stretch:normal;font-size:53.33333588px;font-family:'URW Gothic L';-inkscape-font-specification:'URW Gothic L';fill:none;fill-opacity:1;stroke:#f44336;stroke-width:3.98096633;stroke-miterlimit:4;stroke-dasharray:none;stroke-opacity:1"
         id="path9967"
         inkscape:connector-curvature="0" />
      <path
         d="m -755.7323,364.49686 c 0,-4 -0.53333,-6.45333 -1.97333,-9.01333 -2.61334,-4.64 -7.68001,-7.57334 -13.22667,-7.57334 -8.48,0 -15.14667,6.66667 -15.14667,15.14667 0,8.64 6.77333,15.41333 15.41333,15.41333 3.73334,0 7.25334,-1.38666 9.92,-3.89333 2.08001,-1.97333 3.46667,-4 4.26667,-6.4 h -4.10667 c -1.65333,4 -5.76,6.66667 -10.18666,6.66667 -5.97334,0 -11.04,-4.58667 -11.36,-10.34667 z m -26.29334,-3.57333 c 1.06667,-5.6 5.49334,-9.38667 11.04,-9.38667 5.65334,0 9.97334,3.57333 11.30667,9.38667 z"
         style="font-style:normal;font-variant:normal;font-weight:normal;font-stretch:normal;font-size:53.33333588px;font-family:'URW Gothic L';-inkscape-font-specification:'URW Gothic L';fill:none;fill-opacity:1;stroke:#f44336;stroke-width:3.98096633;stroke-miterlimit:4;stroke-dasharray:none;stroke-opacity:1"
         id="path9969"
         inkscape:connector-curvature="0" />
      <path
         d="m -720.45813,338.36353 h -3.94667 v 14.88 c -2.88,-3.46667 -6.88,-5.33334 -11.46667,-5.33334 -8.8,0 -15.52,6.61334 -15.52,15.30667 0,8.64 6.88,15.25333 15.89333,15.25333 4.85334,0 8.16,-1.76 11.09334,-5.97333 v 5.28 h 3.94667 z m -15.52001,13.17333 c 6.45334,0 11.73334,5.17333 11.73334,11.57333 0,6.4 -5.12,11.73334 -11.36,11.73334 -6.66667,0 -11.78667,-5.12 -11.78667,-11.78667 0,-6.4 5.06667,-11.52 11.41333,-11.52 z"
         style="font-style:normal;font-variant:normal;font-weight:normal;font-stretch:normal;font-size:53.33333588px;font-family:'URW Gothic L';-inkscape-font-specification:'URW Gothic L';fill:none;fill-opacity:1;stroke:#f44336;stroke-width:3.98096633;stroke-miterlimit:4;stroke-dasharray:none;stroke-opacity:1"
         id="path9971"
         inkscape:connector-curvature="0" />
      <path
         d="m -669.21061,348.60353 h -3.94667 v 5.17333 c -2.88,-4.05333 -6.45333,-5.86667 -11.52,-5.86667 -8.74667,0 -15.36,6.61334 -15.36,15.36 0,8.69334 6.66666,15.2 15.62666,15.2 4.96001,0 8.16001,-1.65333 11.25334,-5.81333 v 5.12 h 3.94667 z m -15.36001,2.93333 c 6.40001,0 11.41334,5.01333 11.41334,11.52 0,6.61333 -4.90667,11.78667 -11.2,11.78667 -6.61334,0 -11.68,-5.17334 -11.68,-11.84 0,-6.34667 5.12,-11.46667 11.46666,-11.46667 z"
         style="font-style:normal;font-variant:normal;font-weight:normal;font-stretch:normal;font-size:53.33333588px;font-family:'URW Gothic L';-inkscape-font-specification:'URW Gothic L';fill:none;fill-opacity:1;stroke:#f44336;stroke-width:3.98096633;stroke-miterlimit:4;stroke-dasharray:none;stroke-opacity:1"
         id="path9973"
         inkscape:connector-curvature="0" />
      <path
         d="m -647.66734,377.77686 h 3.94666 v -17.01333 c 0,-5.44 2.77334,-8.42667 8.26667,-8.96 v -3.89334 c -4.21333,0.21334 -6.72,1.65334 -8.26667,4.85334 v -4.16 h -3.94666 z"
         style="font-style:normal;font-variant:normal;font-weight:normal;font-stretch:normal;font-size:53.33333588px;font-family:'URW Gothic L';-inkscape-font-specification:'URW Gothic L';fill:none;fill-opacity:1;stroke:#f44336;stroke-width:3.98096633;stroke-miterlimit:4;stroke-dasharray:none;stroke-opacity:1"
         id="path9975"
         inkscape:connector-curvature="0" />
      <path
         d="m -602.39893,364.49686 c 0,-4 -0.53333,-6.45333 -1.97333,-9.01333 -2.61333,-4.64 -7.68,-7.57334 -13.22667,-7.57334 -8.48,0 -15.14667,6.66667 -15.14667,15.14667 0,8.64 6.77334,15.41333 15.41334,15.41333 3.73333,0 7.25333,-1.38666 9.92,-3.89333 2.08,-1.97333 3.46667,-4 4.26667,-6.4 h -4.10667 c -1.65333,4 -5.76,6.66667 -10.18667,6.66667 -5.97333,0 -11.04,-4.58667 -11.36,-10.34667 z m -26.29333,-3.57333 c 1.06666,-5.6 5.49333,-9.38667 11.04,-9.38667 5.65333,0 9.97333,3.57333 11.30667,9.38667 z"
         style="font-style:normal;font-variant:normal;font-weight:normal;font-stretch:normal;font-size:53.33333588px;font-family:'URW Gothic L';-inkscape-font-specification:'URW Gothic L';fill:none;fill-opacity:1;stroke:#f44336;stroke-width:3.98096633;stroke-miterlimit:4;stroke-dasharray:none;stroke-opacity:1"
         id="path9977"
         inkscape:connector-curvature="0" />
      <path
         d="m -596.9381,348.60353 v 39.41333 h 3.94667 v -15.25333 c 2.56,3.73333 6.50667,5.70666 11.36,5.70666 8.69334,0 15.46667,-6.66666 15.46667,-15.2 0,-8.69333 -6.66667,-15.36 -15.36,-15.36 -4.96,0 -9.01334,2.02667 -11.46667,5.70667 v -5.01333 z m 15.25334,2.93333 c 6.56,0 11.52,5.01333 11.52,11.73333 0,6.56 -4.96,11.57334 -11.46667,11.57334 -6.66667,0 -11.62667,-5.06667 -11.62667,-11.78667 0,-6.45333 5.12,-11.52 11.57334,-11.52 z"
         style="font-style:normal;font-variant:normal;font-weight:normal;font-stretch:normal;font-size:53.33333588px;font-family:'URW Gothic L';-inkscape-font-specification:'URW Gothic L';fill:none;fill-opacity:1;stroke:#f44336;stroke-width:3.98096633;stroke-miterlimit:4;stroke-dasharray:none;stroke-opacity:1"
         id="path9979"
         inkscape:connector-curvature="0" />
      <path
         d="m -560.58397,377.77686 h 3.94667 v -17.01333 c 0,-5.44 2.77333,-8.42667 8.26666,-8.96 v -3.89334 c -4.21333,0.21334 -6.72,1.65334 -8.26666,4.85334 v -4.16 h -3.94667 z"
         style="font-style:normal;font-variant:normal;font-weight:normal;font-stretch:normal;font-size:53.33333588px;font-family:'URW Gothic L';-inkscape-font-specification:'URW Gothic L';fill:none;fill-opacity:1;stroke:#f44336;stroke-width:3.98096633;stroke-miterlimit:4;stroke-dasharray:none;stroke-opacity:1"
         id="path9981"
         inkscape:connector-curvature="0" />
      <path
         d="m -544.54234,377.77686 h 3.94666 v -29.17333 h -3.94666 z m 0,-32.69333 h 3.94666 v -6.72 h -3.94666 z"
         style="font-style:normal;font-variant:normal;font-weight:normal;font-stretch:normal;font-size:53.33333588px;font-family:'URW Gothic L';-inkscape-font-specification:'URW Gothic L';fill:none;fill-opacity:1;stroke:#f44336;stroke-width:3.98096633;stroke-miterlimit:4;stroke-dasharray:none;stroke-opacity:1"
         id="path9983"
         inkscape:connector-curvature="0" />
      <path
         d="m -533.91734,377.77686 h 3.94666 v -16.05333 c 0,-3.25334 0.42667,-4.96 1.54667,-6.61334 1.54667,-2.24 4.26667,-3.57333 7.36,-3.57333 2.88,0 5.49333,1.17333 7.09333,3.14667 1.38667,1.81333 1.92,3.94666 1.92,7.78666 v 15.30667 h 3.94667 v -15.30667 c 0,-4.90666 -0.69333,-7.52 -2.56,-10.02666 -2.29333,-2.88 -5.81333,-4.53334 -9.92,-4.53334 -3.84,0 -6.93333,1.49334 -9.38667,4.48 v -3.78666 h -3.94666 z"
         style="font-style:normal;font-variant:normal;font-weight:normal;font-stretch:normal;font-size:53.33333588px;font-family:'URW Gothic L';-inkscape-font-specification:'URW Gothic L';fill:none;fill-opacity:1;stroke:#f44336;stroke-width:3.98096633;stroke-miterlimit:4;stroke-dasharray:none;stroke-opacity:1"
         id="path9985"
         inkscape:connector-curvature="0" />
      <path
         d="m -497.84401,377.77686 h 3.94667 v -25.6 h 6.56 v -3.57333 h -6.56 v -10.24 h -3.94667 v 10.24 h -6.29333 v 3.57333 h 6.29333 z"
         style="font-style:normal;font-variant:normal;font-weight:normal;font-stretch:normal;font-size:53.33333588px;font-family:'URW Gothic L';-inkscape-font-specification:'URW Gothic L';fill:none;fill-opacity:1;stroke:#f44336;stroke-width:3.98096633;stroke-miterlimit:4;stroke-dasharray:none;stroke-opacity:1"
         id="path9987"
         inkscape:connector-curvature="0" />
      <path
         d="m -438.79393,348.60353 h -3.94666 v 5.17333 c -2.88,-4.05333 -6.45334,-5.86667 -11.52,-5.86667 -8.74667,0 -15.36001,6.61334 -15.36001,15.36 0,8.69334 6.66667,15.2 15.62667,15.2 4.96,0 8.16,-1.65333 11.25334,-5.81333 v 5.12 h 3.94666 z m -15.36,2.93333 c 6.4,0 11.41334,5.01333 11.41334,11.52 0,6.61333 -4.90667,11.78667 -11.2,11.78667 -6.61334,0 -11.68001,-5.17334 -11.68001,-11.84 0,-6.34667 5.12,-11.46667 11.46667,-11.46667 z"
         style="font-style:normal;font-variant:normal;font-weight:normal;font-stretch:normal;font-size:53.33333588px;font-family:'URW Gothic L';-inkscape-font-specification:'URW Gothic L';fill:none;fill-opacity:1;stroke:#f44336;stroke-width:3.98096633;stroke-miterlimit:4;stroke-dasharray:none;stroke-opacity:1"
         id="path9989"
         inkscape:connector-curvature="0" />
      <path
         d="m -402.86901,348.60353 h -3.94667 v 5.17333 c -2.93333,-4 -6.50666,-5.86667 -11.41333,-5.86667 -8.53333,0 -14.93333,6.61334 -14.93333,15.41334 0,8.53333 6.66666,15.14666 15.2,15.14666 5.22666,0 8.85333,-2.13333 11.14666,-6.61333 v 1.97333 c 0,2.88 -0.32,4.69334 -1.17333,6.50667 -1.54667,3.36 -5.06667,5.28 -9.54667,5.28 -3.25333,0 -5.76,-0.96 -7.84,-2.93333 -1.01333,-0.90667 -1.6,-1.76 -2.88,-4 h -3.84 c 2.13334,6.82666 7.30667,10.56 14.66667,10.56 5.06667,0 9.33333,-1.92 11.84,-5.22667 1.97333,-2.66667 2.72,-5.76 2.72,-11.46667 z m -15.14667,2.93333 c 6.29334,0 11.2,4.96 11.2,11.30667 0,6.82666 -4.8,12 -11.14666,12 -6.4,0 -11.2,-5.06667 -11.2,-11.84 0,-6.66667 4.69333,-11.46667 11.14666,-11.46667 z"
         style="font-style:normal;font-variant:normal;font-weight:normal;font-stretch:normal;font-size:53.33333588px;font-family:'URW Gothic L';-inkscape-font-specification:'URW Gothic L';fill:none;fill-opacity:1;stroke:#f44336;stroke-width:3.98096633;stroke-miterlimit:4;stroke-dasharray:none;stroke-opacity:1"
         id="path9991"
         inkscape:connector-curvature="0" />
      <path
         d="m -366.39818,348.60353 h -3.94666 v 5.17333 c -2.88,-4.05333 -6.45334,-5.86667 -11.52,-5.86667 -8.74667,0 -15.36,6.61334 -15.36,15.36 0,8.69334 6.66666,15.2 15.62666,15.2 4.96,0 8.16,-1.65333 11.25334,-5.81333 v 5.12 h 3.94666 z m -15.36,2.93333 c 6.4,0 11.41334,5.01333 11.41334,11.52 0,6.61333 -4.90667,11.78667 -11.2,11.78667 -6.61334,0 -11.68,-5.17334 -11.68,-11.84 0,-6.34667 5.12,-11.46667 11.46666,-11.46667 z"
         style="font-style:normal;font-variant:normal;font-weight:normal;font-stretch:normal;font-size:53.33333588px;font-family:'URW Gothic L';-inkscape-font-specification:'URW Gothic L';fill:none;fill-opacity:1;stroke:#f44336;stroke-width:3.98096633;stroke-miterlimit:4;stroke-dasharray:none;stroke-opacity:1"
         id="path9993"
         inkscape:connector-curvature="0" />
      <path
         d="m -359.64647,377.77686 h 3.94667 v -29.17333 h -3.94667 z m 0,-32.69333 h 3.94667 v -6.72 h -3.94667 z"
         style="font-style:normal;font-variant:normal;font-weight:normal;font-stretch:normal;font-size:53.33333588px;font-family:'URW Gothic L';-inkscape-font-specification:'URW Gothic L';fill:none;fill-opacity:1;stroke:#f44336;stroke-width:3.98096633;stroke-miterlimit:4;stroke-dasharray:none;stroke-opacity:1"
         id="path9995"
         inkscape:connector-curvature="0" />
      <path
         d="m -349.02147,377.77686 h 3.94667 v -16.05333 c 0,-3.25334 0.42666,-4.96 1.54666,-6.61334 1.54667,-2.24 4.26667,-3.57333 7.36,-3.57333 2.88,0 5.49334,1.17333 7.09334,3.14667 1.38666,1.81333 1.92,3.94666 1.92,7.78666 v 15.30667 h 3.94666 v -15.30667 c 0,-4.90666 -0.69333,-7.52 -2.56,-10.02666 -2.29333,-2.88 -5.81333,-4.53334 -9.92,-4.53334 -3.84,0 -6.93333,1.49334 -9.38666,4.48 v -3.78666 h -3.94667 z"
         style="font-style:normal;font-variant:normal;font-weight:normal;font-stretch:normal;font-size:53.33333588px;font-family:'URW Gothic L';-inkscape-font-specification:'URW Gothic L';fill:none;fill-opacity:1;stroke:#f44336;stroke-width:3.98096633;stroke-miterlimit:4;stroke-dasharray:none;stroke-opacity:1"
         id="path9997"
         inkscape:connector-curvature="0" />
      <path
         d="m -314.4948,377.77686 h 3.94666 v -6.72 h -3.94666 z"
         style="font-style:normal;font-variant:normal;font-weight:normal;font-stretch:normal;font-size:53.33333588px;font-family:'URW Gothic L';-inkscape-font-specification:'URW Gothic L';fill:none;fill-opacity:1;stroke:#f44336;stroke-width:3.98096633;stroke-miterlimit:4;stroke-dasharray:none;stroke-opacity:1"
         id="path9999"
         inkscape:connector-curvature="0" />
      <path
         d="m -299.70318,377.77686 h 3.94667 v -6.72 h -3.94667 z"
         style="font-style:normal;font-variant:normal;font-weight:normal;font-stretch:normal;font-size:53.33333588px;font-family:'URW Gothic L';-inkscape-font-specification:'URW Gothic L';fill:none;fill-opacity:1;stroke:#f44336;stroke-width:3.98096633;stroke-miterlimit:4;stroke-dasharray:none;stroke-opacity:1"
         id="path10001"
         inkscape:connector-curvature="0" />
      <path
         d="m -284.91143,377.77686 h 3.94667 v -6.72 h -3.94667 z"
         style="font-style:normal;font-variant:normal;font-weight:normal;font-stretch:normal;font-size:53.33333588px;font-family:'URW Gothic L';-inkscape-font-specification:'URW Gothic L';fill:none;fill-opacity:1;stroke:#f44336;stroke-width:3.98096633;stroke-miterlimit:4;stroke-dasharray:none;stroke-opacity:1"
         id="path10003"
         inkscape:connector-curvature="0" />
    </g>
  </g>
</svg>
