<?xml version="1.0" encoding="UTF-8" standalone="no"?>
<svg
   xmlns:dc="http://purl.org/dc/elements/1.1/"
   xmlns:cc="http://creativecommons.org/ns#"
   xmlns:rdf="http://www.w3.org/1999/02/22-rdf-syntax-ns#"
   xmlns:svg="http://www.w3.org/2000/svg"
   xmlns="http://www.w3.org/2000/svg"
   xmlns:xlink="http://www.w3.org/1999/xlink"
   xmlns:sodipodi="http://sodipodi.sourceforge.net/DTD/sodipodi-0.dtd"
   xmlns:inkscape="http://www.inkscape.org/namespaces/inkscape"
   width="124.76428mm"
   height="63.364197mm"
   viewBox="0 0 124.76428 63.364197"
   version="1.1"
   id="svg8"
   inkscape:version="1.0.1 (3bc2e813f5, 2020-09-07)"
   sodipodi:docname="createmevn-logo.svg"
   inkscape:export-filename="/home/hamishclulee/more-art-than.science/front/public/images/createmevn.png"
   inkscape:export-xdpi="87.110001"
   inkscape:export-ydpi="87.110001">
  <defs
     id="defs2">
    <linearGradient
       inkscape:collect="always"
       id="linearGradient6880">
      <stop
         style="stop-color:#d61b1b;stop-opacity:1;"
         offset="0"
         id="stop6876" />
      <stop
         style="stop-color:#d61b1b;stop-opacity:0;"
         offset="1"
         id="stop6878" />
    </linearGradient>
    <radialGradient
       inkscape:collect="always"
       xlink:href="#linearGradient6880"
       id="radialGradient6890"
       cx="-1023.7412"
       cy="176.88335"
       fx="-1023.7412"
       fy="176.88335"
       r="62.294285"
       gradientTransform="matrix(0.72227511,0,0,0.92336838,-316.31697,-45.712817)"
       gradientUnits="userSpaceOnUse" />
    <radialGradient
       inkscape:collect="always"
       xlink:href="#linearGradient6880"
       id="radialGradient6892"
       cx="-891.51666"
       cy="172.4771"
       fx="-891.51666"
       fy="172.4771"
       r="44.706364"
       gradientTransform="matrix(0.72227511,0,0,1.063981,-316.31697,-69.079207)"
       gradientUnits="userSpaceOnUse" />
    <radialGradient
       inkscape:collect="always"
       xlink:href="#linearGradient6880"
       id="radialGradient6894"
       cx="-765.45996"
       cy="173.88335"
       fx="-765.45996"
       fy="173.88335"
       r="65.013039"
       gradientTransform="matrix(0.72227511,0,0,0.73269046,-316.31697,-11.953819)"
       gradientUnits="userSpaceOnUse" />
    <radialGradient
       inkscape:collect="always"
       xlink:href="#linearGradient6880"
       id="radialGradient6896"
       cx="-639.64746"
       cy="177.11668"
       fx="-639.64746"
       fy="177.11668"
       r="54.700542"
       gradientTransform="matrix(0.72227511,0,0,0.95909196,-316.31697,-52.086984)"
       gradientUnits="userSpaceOnUse" />
  </defs>
  <sodipodi:namedview
     id="base"
     pagecolor="#ffffff"
     bordercolor="#666666"
     borderopacity="1.0"
     inkscape:pageopacity="0.0"
     inkscape:pageshadow="2"
     inkscape:zoom="0.7"
     inkscape:cx="164.67303"
     inkscape:cy="-79.783741"
     inkscape:document-units="mm"
     inkscape:current-layer="flowRoot815"
     showgrid="false"
     showborder="true"
     fit-margin-top="0"
     fit-margin-left="0"
     fit-margin-right="0"
     fit-margin-bottom="0"
     inkscape:window-width="1853"
     inkscape:window-height="1025"
     inkscape:window-x="67"
     inkscape:window-y="27"
     inkscape:window-maximized="1"
     inkscape:pagecheckerboard="true"
     inkscape:document-rotation="0" />
  <metadata
     id="metadata5">
    <rdf:RDF>
      <cc:Work
         rdf:about="">
        <dc:format>image/svg+xml</dc:format>
        <dc:type
           rdf:resource="http://purl.org/dc/dcmitype/StillImage" />
        <dc:title></dc:title>
      </cc:Work>
    </rdf:RDF>
  </metadata>
  <g
     inkscape:label="Layer 1"
     inkscape:groupmode="layer"
     id="layer1"
     transform="translate(299.42675,19.29392)">
    <g
       aria-label="CREATE M.E.V.N."
       transform="matrix(0.26458333,0,0,0.26458333,3.4017857,-2.2678571)"
       style="font-style:normal;font-weight:normal;font-size:40px;line-height:1.25;font-family:sans-serif;letter-spacing:0px;word-spacing:0px;fill:#000000;fill-opacity:1;stroke:none;stroke-width:11.3386;stroke-miterlimit:4;stroke-dasharray:none"
       id="flowRoot815">
      <path
         d="m -1076.108,26.417332 1.2481,9.15267 q -11.5102,3.189567 -28.0127,3.189567 -20.6629,0 -29.1221,-11.094145 -8.4593,-11.094146 -8.4593,-38.41348 0,-27.319333 8.4593,-38.413479 8.4592,-11.094146 29.1221,-11.094146 14.8384,0 26.0712,2.773536 l -1.2481,9.291348 q -12.4809,-1.248092 -24.8231,-1.248092 -14.0064,0 -19.4148,8.459286 -5.2697,8.32061 -5.2697,30.231547 0,21.910937 5.2697,30.370224 5.4084,8.320609 19.4148,8.320609 16.0865,0 26.7646,-1.525445 z"
         style="font-style:normal;font-variant:normal;font-weight:normal;font-stretch:normal;font-size:192px;line-height:0.25;font-family:'Exo 2';-inkscape-font-specification:'Exo 2, ';text-align:center;text-anchor:middle;fill:#818181;fill-opacity:1;stroke:#818181;stroke-width:8.18959;stroke-miterlimit:4;stroke-dasharray:none;stroke-opacity:1"
         id="path844" />
      <path
         d="m -990.36231,37.095447 h -13.03569 l -8.4593,-29.9541933 q -1.8028,-5.408396 -4.8537,-7.62722505 -3.0508,-2.35750595 -7.9045,-2.35750595 -4.8537,0 -11.9263,0 -6.9338,-0.138677 -9.1526,-0.138677 V 37.095447 h -12.0649 v -95.687006 q 11.6488,-1.248091 33.0051,-1.248091 17.0572,0 23.9911,5.963103 6.93387,5.824426 6.93387,21.633584 0,11.78753 -4.16032,17.611956 -4.02165,5.8244267 -13.45165,7.0725177 v 0.693384 q 3.8829,0.970738 7.0725,4.576335 3.1896,3.466921 4.71505,9.15267 z m -55.33209,-50.478362 h 20.6629 q 10.8167,-0.138677 14.8384,-3.882952 4.0216,-3.744273 4.0216,-14.283712 0,-10.400761 -4.0216,-14.006359 -4.0217,-3.744274 -14.8384,-3.744274 -15.2545,0 -20.6629,0.138677 z"
         style="font-style:normal;font-variant:normal;font-weight:normal;font-stretch:normal;font-size:192px;line-height:0.25;font-family:'Exo 2';-inkscape-font-specification:'Exo 2, ';text-align:center;text-anchor:middle;fill:#818181;fill-opacity:1;stroke:#818181;stroke-width:8.18959;stroke-miterlimit:4;stroke-dasharray:none;stroke-opacity:1"
         id="path846" />
      <path
         d="m -914.06406,26.972039 0.55471,9.430024 q -12.75826,0.832061 -41.04834,0.832061 -8.45928,0 -13.45165,-4.437658 -4.85369,-4.576335 -4.99236,-12.203561 v -62.681922 q 0.13867,-7.627225 4.99236,-12.064883 4.99237,-4.576335 13.45165,-4.576335 28.29008,0 41.04834,0.83206 l -0.55471,9.568701 h -38.41347 q -8.32061,0 -8.32061,9.15267 v 20.801523 h 41.32569 v 9.8460547 h -41.32569 V 17.680692 q 0,9.291347 8.32061,9.291347 z"
         style="font-style:normal;font-variant:normal;font-weight:normal;font-stretch:normal;font-size:192px;line-height:0.25;font-family:'Exo 2';-inkscape-font-specification:'Exo 2, ';text-align:center;text-anchor:middle;fill:#818181;fill-opacity:1;stroke:#818181;stroke-width:8.18959;stroke-miterlimit:4;stroke-dasharray:none;stroke-opacity:1"
         id="path848" />
      <path
         d="m -843.67907,7.1412537 h -39.38422 l -9.43002,29.9541933 h -12.61958 l 30.78624,-92.358762 q 0.83207,-3.328244 4.57634,-3.328244 h 12.75827 q 3.74427,0 4.57633,3.328244 l 30.78626,92.358762 h -12.6196 z m -3.32824,-10.539439 -12.06488,-37.9974477 q -1.24809,-3.605598 -2.35751,-7.765902 h -3.88295 l -2.35751,7.765902 -12.06488,37.9974477 z"
         style="font-style:normal;font-variant:normal;font-weight:normal;font-stretch:normal;font-size:192px;line-height:0.25;font-family:'Exo 2';-inkscape-font-specification:'Exo 2, ';text-align:center;text-anchor:middle;fill:#818181;fill-opacity:1;stroke:#818181;stroke-width:8.18959;stroke-miterlimit:4;stroke-dasharray:none;stroke-opacity:1"
         id="path850" />
      <path
         d="m -751.25096,-47.774767 h -30.92494 v 84.870214 h -12.20356 v -84.870214 h -30.78625 v -10.816792 h 73.91475 z"
         style="font-style:normal;font-variant:normal;font-weight:normal;font-stretch:normal;font-size:192px;line-height:0.25;font-family:'Exo 2';-inkscape-font-specification:'Exo 2, ';text-align:center;text-anchor:middle;fill:#818181;fill-opacity:1;stroke:#818181;stroke-width:8.18959;stroke-miterlimit:4;stroke-dasharray:none;stroke-opacity:1"
         id="path852" />
      <path
         d="m -677.88009,26.972039 0.5547,9.430024 q -12.75826,0.832061 -41.04833,0.832061 -8.45929,0 -13.45165,-4.437658 -4.85369,-4.576335 -4.99237,-12.203561 v -62.681922 q 0.13868,-7.627225 4.99237,-12.064883 4.99236,-4.576335 13.45165,-4.576335 28.29007,0 41.04833,0.83206 l -0.5547,9.568701 h -38.41348 q -8.32061,0 -8.32061,9.15267 v 20.801523 h 41.32569 v 9.8460547 h -41.32569 V 17.680692 q 0,9.291347 8.32061,9.291347 z"
         style="font-style:normal;font-variant:normal;font-weight:normal;font-stretch:normal;font-size:192px;line-height:0.25;font-family:'Exo 2';-inkscape-font-specification:'Exo 2, ';text-align:center;text-anchor:middle;fill:#818181;fill-opacity:1;stroke:#818181;stroke-width:8.18959;stroke-miterlimit:4;stroke-dasharray:none;stroke-opacity:1"
         id="path854" />
      <path
         d="m -1096.6386,77.055408 q 0,-0.135427 0,-0.40628 0.2708,-0.270854 0.6771,-1.083413 0.5417,-0.812559 1.0834,-1.489692 0.5417,-0.81256 0.948,-1.354266 0.4062,-0.677133 0.5417,-0.677133 0.8126,-0.40628 2.4377,-0.947986 0.6772,-0.270853 1.6251,-0.270853 v 7.583889 l 22.6163,43.878216 1.6251,-1.62512 q 0.2708,-1.35427 1.3542,-4.6045 1.2189,-3.38567 2.4377,-7.17762 1.2188,-3.79194 2.3023,-7.04218 1.2188,-3.250239 1.6251,-4.604505 0.2709,-0.677134 1.0834,-2.437679 0.948,-1.760545 2.0314,-4.198221 1.2189,-2.437678 2.4377,-5.14621 1.3542,-2.708531 2.4377,-5.14621 1.2188,-2.437678 2.0313,-4.198223 0.8126,-1.895973 1.0835,-2.437679 0.4063,-0.81256 0.5417,-2.437679 0.2708,-1.625118 0.6771,-3.114811 0.5417,-1.625121 1.4896,-2.708533 0.9481,-1.218839 2.7086,-1.218839 0.2709,0 0.4063,0.135426 0.2709,0 0.4063,0 0.6771,0.135427 1.896,0.81256 1.2188,0.541706 1.2188,0.541706 l 18.8243,78.547427 q 0.2708,0.40627 0.6771,1.21883 0.5417,0.81256 0.948,1.89598 0.5417,0.94798 0.948,1.89597 0.5417,0.81255 0.5417,1.21884 0,0.13542 0,0.40628 0.1354,0.27085 0.1354,0.5417 0,1.62512 -0.8125,2.84396 -0.6772,1.21884 -2.4377,1.21884 -1.3543,0 -2.3023,-0.54171 -0.8126,-0.67713 -0.6771,-2.70853 -0.5417,-2.43767 -1.6251,-7.31303 -1.0834,-4.87536 -2.5731,-11.10498 -1.3543,-6.22962 -2.844,-13.00096 -1.4897,-6.90676 -2.9793,-13.13638 -1.3544,-6.22961 -2.4378,-11.104979 -1.0833,-4.875352 -1.7605,-7.177605 -0.2709,-0.812559 -0.948,-2.843957 -0.6771,-2.166826 -1.3543,-4.333651 -0.677,-2.302252 -1.3542,-4.198224 -0.6772,-2.031399 -1.0834,-2.708532 -8.8028,12.865525 -14.4907,27.897878 -5.5525,15.03235 -9.0736,30.0647 -0.1354,0.13542 -1.2188,0.27085 -0.948,0 -1.2188,0 -2.0314,0 -3.5211,-2.16682 -1.4897,-2.30225 -2.5731,-5.14621 -0.948,-2.97939 -1.6251,-5.55249 -0.5417,-2.57311 -0.8126,-3.11481 -0.4063,-1.08342 -1.4897,-3.25024 l -8.3964,-16.7929 q -1.3543,-2.708534 -2.5731,-4.875357 -1.0835,-2.30225 -1.6251,-3.250237 v 3.114814 q 0.2708,2.437678 0.677,7.71931 0.5418,5.28164 1.0835,12.05297 0.6771,6.6359 1.3542,13.94894 0.6772,7.31303 1.2189,14.08436 0.6771,6.6359 1.0834,11.91754 0.5417,5.14621 0.8125,7.71932 0.6772,2.30224 1.0835,4.0628 0.5417,1.76054 0.5417,3.92737 0,1.21883 -0.5417,2.16682 -0.5417,0.94799 -1.896,0.94799 -1.3542,0 -2.1668,-1.48969 -0.8126,-1.35427 -1.2188,-3.11481 -0.2709,-1.62513 -0.4063,-3.11482 -0.1355,-1.35426 -0.1355,-1.62512 -2.0314,-18.68887 -3.1147,-37.10688 -0.9481,-18.41802 -3.1149,-36.971459 -0.1355,-0.81256 -0.6771,-2.166826 -0.4063,-1.354266 -1.0835,-2.708531 -0.5416,-1.489692 -1.0833,-2.843958 -0.4063,-1.354266 -0.4063,-2.302253 z"
         style="font-style:normal;font-variant:normal;font-weight:normal;font-stretch:normal;font-size:192px;line-height:1.25;font-family:'Waiting for the Sunrise';-inkscape-font-specification:'Waiting for the Sunrise';text-align:center;text-anchor:middle;fill:url(#radialGradient6890);fill-opacity:1;stroke:#c86666;stroke-width:8.18959;stroke-miterlimit:4;stroke-dasharray:none;stroke-opacity:1"
         id="path856" />
      <path
         d="m -1007.3925,153.30058 q 0,-2.30226 1.2188,-3.92738 1.2189,-1.62511 3.5211,-1.62511 2.1668,0 3.52115,0.81255 1.48969,0.81256 1.48969,3.25024 0,2.70853 -1.89599,5.01079 -1.76055,2.30225 -4.60455,2.30225 -1.0834,0 -1.7605,-0.54171 -0.6772,-0.67713 -1.0834,-1.48969 -0.2709,-0.94799 -0.4063,-1.89598 0,-1.08341 0,-1.89596 z"
         style="font-style:normal;font-variant:normal;font-weight:normal;font-stretch:normal;font-size:192px;line-height:1.25;font-family:'Waiting for the Sunrise';-inkscape-font-specification:'Waiting for the Sunrise';text-align:center;text-anchor:middle;fill:#818181;fill-opacity:1;stroke:#818181;stroke-width:8.18959;stroke-miterlimit:4;stroke-dasharray:none;stroke-opacity:1"
         id="path858" />
      <path
         d="m -988.43275,91.275199 v -17.06375 q 0.27085,-0.135426 1.21884,-0.135426 0.94799,-0.135427 1.21884,-0.135427 1.35426,0 1.89597,0.541707 0.54171,0.541705 0.81256,1.218839 0.27085,0.541706 0.54171,1.083412 0.40628,0.541707 1.35427,0.541707 2.16682,0 5.41705,-0.81256 3.38567,-0.947986 7.04219,-2.031398 3.65652,-1.083413 7.17761,-2.0314 3.65652,-1.083412 6.22962,-1.489691 h 1.08341 q 1.62512,0 2.70853,0.812559 1.21885,0.677132 1.21885,2.437678 0,0.135427 -0.13543,0.677134 0,0.541705 0,0.677132 -3.52109,0.270853 -7.99017,0.812559 -4.46908,0.541707 -9.07358,1.760546 -4.46908,1.083413 -8.39645,3.114812 -3.79194,2.031398 -6.0942,5.281637 v 8.938151 q 0,3.114811 0,6.77133 0.13543,3.65652 0.27086,7.04218 0.27085,3.38567 0.54171,6.22963 0.40627,2.70853 0.94798,4.0628 l 34.53378,-14.08437 q 2.84396,0.27085 3.79194,0.67713 1.08342,0.40628 0.94798,1.08341 -0.13542,0.67714 -1.21883,1.4897 -0.94799,0.67713 -2.0314,1.48969 -1.89597,0.81256 -6.77133,3.11481 -4.87535,2.16683 -10.42784,4.73993 -5.55249,2.43768 -10.42785,4.73993 -4.87536,2.16682 -6.77133,3.11481 -1.08341,0.13543 -1.48969,0.81256 -0.27086,0.67713 -0.40628,1.4897 0,0.81256 0,1.76054 0.13542,0.81256 0.13542,1.21884 0,3.92738 0.94799,7.71931 0.94799,3.79195 0.94799,7.85475 0,1.76054 -1.21884,3.38566 -1.21884,1.48969 -4.0628,1.48969 z m 54.9832,53.493501 q -1.21885,0.27085 -3.79195,1.08341 -2.43768,0.67713 -5.82334,1.62512 -3.25024,0.94799 -6.90676,2.0314 -3.52109,0.94799 -6.77133,1.89597 -3.25024,0.81256 -5.95876,1.62512 -2.57311,0.67713 -3.79195,1.08341 -3.11481,0.94799 -4.60451,1.76055 -1.35427,0.67713 -2.43768,1.21884 -0.94798,0.40628 -2.30224,0.67713 -1.21885,0.13543 -4.0628,0.13543 0,-3.25024 0.54171,-4.6045 0.67713,-1.4897 3.52109,-2.30226 l 40.49254,-11.2404 z"
         style="font-style:normal;font-variant:normal;font-weight:normal;font-stretch:normal;font-size:192px;line-height:1.25;font-family:'Waiting for the Sunrise';-inkscape-font-specification:'Waiting for the Sunrise';text-align:center;text-anchor:middle;fill:url(#radialGradient6892);fill-opacity:1;stroke:#c86666;stroke-width:8.18959;stroke-miterlimit:4;stroke-dasharray:none;stroke-opacity:1"
         id="path860" />
      <path
         d="m -927.21993,153.30058 q 0,-2.30226 1.21884,-3.92738 1.21884,-1.62511 3.52109,-1.62511 2.16682,0 3.52109,0.81255 1.48969,0.81256 1.48969,3.25024 0,2.70853 -1.89597,5.01079 -1.76055,2.30225 -4.6045,2.30225 -1.08342,0 -1.76055,-0.54171 -0.67713,-0.67713 -1.08341,-1.48969 -0.27086,-0.94799 -0.40628,-1.89598 0,-1.08341 0,-1.89596 z"
         style="font-style:normal;font-variant:normal;font-weight:normal;font-stretch:normal;font-size:192px;line-height:1.25;font-family:'Waiting for the Sunrise';-inkscape-font-specification:'Waiting for the Sunrise';text-align:center;text-anchor:middle;fill:#818181;fill-opacity:1;stroke:#818181;stroke-width:8.18959;stroke-miterlimit:4;stroke-dasharray:none;stroke-opacity:1"
         id="path862" />
      <path
         d="m -912.05216,82.87875 q 2.57311,0 4.0628,0.677134 1.62512,0.677132 2.70854,2.031398 1.08341,1.218839 1.89596,3.114812 0.94799,1.895971 2.30226,4.198224 l 42.52394,51.868382 q 0.67714,0.94799 0.94799,1.35426 0.40628,0.27086 1.35427,0.27086 0.13542,0 0.27085,0 0.27085,-0.13543 0.40628,-0.13543 0.40628,-1.62512 1.21884,-5.14621 0.94798,-3.65652 1.89597,-8.1256 1.08341,-4.6045 2.30225,-9.47985 1.21884,-5.01078 2.30225,-9.47986 1.08342,-4.46908 1.89597,-7.99017 0.94799,-3.52109 1.35427,-5.14621 0.94799,-3.38567 2.30225,-8.261027 1.35427,-5.010782 3.52109,-9.479859 2.16683,-4.604504 5.14622,-7.854742 3.11481,-3.385664 7.31303,-3.385664 0,2.843958 -0.40628,4.062797 -0.27085,1.083413 -1.08341,1.895972 -0.67713,0.81256 -1.76054,2.031399 -0.94799,1.083413 -2.30226,3.656518 -0.67713,0.947985 -1.89598,3.385664 -1.08341,2.302252 -2.30224,5.14621 -1.21885,2.708528 -2.30226,5.281638 -1.08341,2.437679 -1.48969,3.521094 -0.27085,1.48969 -1.08341,4.87535 -0.81256,3.25024 -1.76054,7.44846 -0.94799,4.19822 -2.0314,8.80274 -0.94799,4.6045 -1.89598,8.80272 -0.81256,4.19822 -1.62511,7.44846 -0.67714,3.25024 -1.08342,4.87536 -0.13543,0.67713 -0.40628,2.43768 -0.13543,1.76055 -0.40628,3.79194 -0.27085,2.0314 -0.5417,3.79194 -0.13543,1.76055 -0.13543,2.57311 -0.81256,1.21884 -1.76055,2.30225 -0.81256,0.94799 -2.16682,0.94799 -1.08341,0 -1.35427,-0.27086 -0.27085,-0.40627 -0.94799,-1.48969 l -54.98319,-69.067553 z"
         style="font-style:normal;font-variant:normal;font-weight:normal;font-stretch:normal;font-size:192px;line-height:1.25;font-family:'Waiting for the Sunrise';-inkscape-font-specification:'Waiting for the Sunrise';text-align:center;text-anchor:middle;fill:url(#radialGradient6894);fill-opacity:1;stroke:#c86666;stroke-width:8.18959;stroke-miterlimit:4;stroke-dasharray:none;stroke-opacity:1"
         id="path864" />
      <path
         d="m -828.62938,153.30058 q 0,-2.30226 1.21884,-3.92738 1.21883,-1.62511 3.52109,-1.62511 2.16682,0 3.52109,0.81255 1.48969,0.81256 1.48969,3.25024 0,2.70853 -1.89597,5.01079 -1.76054,2.30225 -4.6045,2.30225 -1.08342,0 -1.76054,-0.54171 -0.67714,-0.67713 -1.08343,-1.48969 -0.27084,-0.94799 -0.40627,-1.89598 0,-1.08341 0,-1.89596 z"
         style="font-style:normal;font-variant:normal;font-weight:normal;font-stretch:normal;font-size:192px;line-height:1.25;font-family:'Waiting for the Sunrise';-inkscape-font-specification:'Waiting for the Sunrise';text-align:center;text-anchor:middle;fill:#818181;fill-opacity:1;stroke:#818181;stroke-width:8.18959;stroke-miterlimit:4;stroke-dasharray:none;stroke-opacity:1"
         id="path866" />
      <path
         d="m -809.66966,96.421408 q 0,-2.302255 -0.67713,-4.33365 -0.54171,-2.166825 -1.35427,-4.062798 -0.81255,-2.031398 -1.48969,-3.927371 -0.54171,-2.031398 -0.54171,-4.198223 0,-0.81256 0.40628,-2.302253 0.54171,-1.625118 1.21884,-3.11481 0.81256,-1.62512 1.62512,-2.979385 0.81256,-1.354266 1.62512,-1.760546 0.40628,0.135426 1.21884,2.573105 0.94798,2.437679 1.89597,5.55249 0.94799,2.979385 1.76055,5.823343 0.94798,2.708532 1.35426,3.250238 0.81256,1.354266 2.70854,4.062797 2.0314,2.573106 4.46907,5.823341 2.43768,3.250244 5.14622,6.771334 2.70852,3.52109 5.1462,6.77132 2.57311,3.25025 4.60451,5.82335 2.03139,2.5731 2.97938,3.79195 0.40628,0.5417 2.70853,2.70853 2.30226,2.16682 5.41707,5.01078 l 6.09419,5.41707 q 2.97939,2.70852 4.73993,4.19822 0.13543,0.27085 1.35427,1.35427 1.21884,0.94798 2.43768,2.16682 1.35426,1.21883 2.5731,2.30225 1.21884,0.94798 1.48969,1.08342 0.81257,-3.25025 0.40628,-7.58389 -0.40628,-4.33366 -0.40628,-7.85475 0,-6.36505 -0.81256,-12.59467 -0.81255,-6.36505 -1.76054,-12.59467 -0.81256,-6.229624 -1.62512,-12.459248 -0.81256,-6.365049 -0.81256,-12.730098 v -1.489693 q 0,-1.083413 0,-2.166825 0.13542,-1.218839 0.13542,-2.166826 v -1.354266 q 0.94799,-1.625118 2.43768,-1.625118 1.62512,0 2.16683,1.489692 0.67713,1.354265 0.67713,3.114811 0.13543,1.625119 -0.27085,3.250239 -0.27085,1.489691 -0.27085,1.625118 l 7.99017,67.577864 q 0,1.89597 -0.94799,2.97938 -0.94799,1.08342 -2.16683,1.89598 -1.21884,0.67713 -2.5731,0.94798 -1.35426,0.27086 -2.30225,0.40629 -0.13543,0.13542 -0.27086,0.13542 h -0.5417 q -0.81256,0 -1.76055,-0.67713 -0.81256,-0.81256 -1.62512,-1.76055 -0.67713,-0.94799 -1.21884,-2.0314 -0.5417,-1.21883 -0.81256,-1.89597 -1.35426,-1.48969 -4.46907,-4.46907 -2.97938,-3.11482 -6.63591,-6.90676 -3.65651,-3.79195 -7.85474,-7.99017 -4.06279,-4.33366 -7.85474,-8.26102 -3.65652,-3.92737 -6.6359,-7.04218 -2.84396,-3.11482 -4.19822,-4.60451 -0.67714,-0.67713 -2.30226,-2.57311 -1.62512,-2.0314 -3.38566,-4.33364 -1.62512,-2.302257 -3.25024,-4.333657 -1.48969,-2.0314 -2.0314,-2.97938 v 4.739925 q 0,3.385662 -0.13542,7.177612 0,3.65652 0,7.04218 v 4.73993 q 0,11.37584 0.81255,22.48082 0.81256,11.10498 0.81256,22.48081 v 0.54171 q -0.27085,0.40627 -1.48969,1.62512 -1.08341,1.21883 -1.62512,1.48969 l -2.30225,-1.62512 z"
         style="font-style:normal;font-variant:normal;font-weight:normal;font-stretch:normal;font-size:192px;line-height:1.25;font-family:'Waiting for the Sunrise';-inkscape-font-specification:'Waiting for the Sunrise';text-align:center;text-anchor:middle;fill:url(#radialGradient6896);fill-opacity:1;stroke:#c86666;stroke-width:8.18959;stroke-miterlimit:4;stroke-dasharray:none;stroke-opacity:1"
         id="path868" />
      <path
         d="m -734.37248,153.30058 q 0,-2.30226 1.21884,-3.92738 1.21883,-1.62511 3.52109,-1.62511 2.16682,0 3.52109,0.81255 1.48969,0.81256 1.48969,3.25024 0,2.70853 -1.89597,5.01079 -1.76054,2.30225 -4.6045,2.30225 -1.08341,0 -1.76055,-0.54171 -0.67713,-0.67713 -1.08341,-1.48969 -0.27085,-0.94799 -0.40628,-1.89598 0,-1.08341 0,-1.89596 z"
         style="font-style:normal;font-variant:normal;font-weight:normal;font-stretch:normal;font-size:192px;line-height:1.25;font-family:'Waiting for the Sunrise';-inkscape-font-specification:'Waiting for the Sunrise';text-align:center;text-anchor:middle;fill:#818181;fill-opacity:1;stroke:#818181;stroke-width:8.18959;stroke-miterlimit:4;stroke-dasharray:none;stroke-opacity:1"
         id="path870" />
    </g>
  </g>
</svg>
